<svg width="21" height="25" viewBox="0 0 21 25" fill="none" xmlns="http://www.w3.org/2000/svg">
<path d="M16.4032 12.8126C16.4032 10.6074 17.6726 8.70301 19.518 7.77661C17.8707 6.23379 15.7541 6.15015 15.378 6.15015C14.3783 6.15015 13.665 6.42091 12.9757 6.68267C12.3079 6.93641 11.6772 7.17565 10.7646 7.17565C9.85204 7.17565 9.2213 6.93641 8.55352 6.68267C7.86421 6.42091 7.15088 6.15015 6.15121 6.15015C5.52147 6.15015 0 6.35134 0 13.3256C0 19.0287 3.89206 24.6001 6.15121 24.6001C7.53433 24.6001 8.32976 24.2768 9.03208 23.9916C9.58072 23.7688 10.0553 23.5761 10.7646 23.5761C11.4739 23.5761 11.9485 23.7688 12.4971 23.9921C13.1995 24.2768 13.9949 24.6001 15.3775 24.6001C16.9602 24.6001 19.2141 21.8624 20.5 18.2638C18.0725 17.635 16.4032 15.4363 16.4032 12.8126Z" fill="white"/>
<path d="M10.254 6.15C13.2569 5.535 15.4094 3.05974 15.3794 0C12.3765 0.615 10.2241 3.09026 10.254 6.15Z" fill="white"/>
<path opacity="0.1" d="M6.15121 6.4064C7.15088 6.4064 7.86421 6.67716 8.55352 6.93892C9.2213 7.19266 9.85204 7.4319 10.7646 7.4319C11.6772 7.4319 12.3079 7.19266 12.9757 6.93892C13.665 6.67716 14.3783 6.4064 15.378 6.4064C15.7405 6.4064 17.7168 6.49749 19.3347 7.8849C19.397 7.85062 19.4543 7.80858 19.518 7.77661C17.8707 6.23379 15.7541 6.15015 15.378 6.15015C14.3783 6.15015 13.665 6.42091 12.9757 6.68267C12.3079 6.93641 11.6772 7.17565 10.7646 7.17565C9.85204 7.17565 9.2213 6.93641 8.55352 6.68267C7.86421 6.42091 7.15088 6.15015 6.15121 6.15015C5.52147 6.15015 0 6.35134 0 13.3256C0 13.3727 0.00531858 13.4194 0.0058194 13.4663C0.0698943 6.61185 5.52516 6.4064 6.15121 6.4064Z" fill="white"/>
<path opacity="0.2" d="M15.3775 24.3434C13.9949 24.3434 13.1995 24.0201 12.4971 23.7353C11.9485 23.5121 11.4739 23.3194 10.7646 23.3194C10.0553 23.3194 9.58072 23.5121 9.03208 23.7348C8.32976 24.0201 7.53433 24.3434 6.15121 24.3434C3.91071 24.3434 0.0691437 18.863 0.00581915 13.2096C0.0054437 13.2501 0 13.2842 0 13.3251C0 19.0282 3.89206 24.5996 6.15121 24.5996C7.53433 24.5996 8.32976 24.2763 9.03208 23.991C9.58072 23.7683 10.0553 23.5756 10.7646 23.5756C11.4739 23.5756 11.9485 23.7683 12.4971 23.9915C13.1995 24.2763 13.9949 24.5996 15.3775 24.5996C16.9602 24.5996 19.2141 21.8618 20.5 18.2633C20.4702 18.2556 20.4433 18.2414 20.4137 18.2332C19.1104 21.7184 16.9266 24.3434 15.3775 24.3434Z" fill="white"/>
<path opacity="0.2" d="M15.3557 0.452768C15.1441 3.25219 13.0691 5.30506 10.2571 5.89007C10.2543 5.97878 10.2531 6.05975 10.254 6.14953C13.1672 5.55288 15.2801 3.20002 15.3764 0.266724C15.3675 0.31465 15.3709 0.395411 15.3557 0.452768Z" fill="white"/>
<path opacity="0.1" d="M10.2537 5.87758C10.2656 5.81075 10.2805 5.62495 10.2951 5.51258C10.3058 5.3714 10.3212 5.23261 10.341 5.09625C10.7156 2.52793 12.702 0.822832 15.373 0.267198C15.3759 0.178487 15.3769 0.0897751 15.376 0C12.4619 0.59677 10.3488 2.94291 10.2537 5.87758Z" fill="white"/>
<path d="M16.4032 12.8125C16.4032 10.6072 17.6726 8.70286 19.518 7.77646C17.8707 6.23364 15.7541 6.15 15.378 6.15C14.3783 6.15 13.665 6.42076 12.9757 6.68252C12.3079 6.93627 11.6772 7.1755 10.7646 7.1755C9.85204 7.1755 9.2213 6.93627 8.55352 6.68252C7.86421 6.42076 7.15088 6.15 6.15121 6.15C5.52147 6.15 0 6.35119 0 13.3255C0 19.0286 3.89206 24.6 6.15121 24.6C7.53433 24.6 8.32976 24.2767 9.03208 23.9914C9.58072 23.7687 10.0553 23.576 10.7646 23.576C11.4739 23.576 11.9485 23.7687 12.4971 23.9919C13.1995 24.2767 13.9949 24.6 15.3775 24.6C16.9602 24.6 19.2141 21.8622 20.5 18.2637C18.0725 17.6348 16.4032 15.4362 16.4032 12.8125ZM15.3777 0C12.3748 0.614975 10.2224 3.09026 10.2523 6.15C13.2552 5.53496 15.4077 3.05973 15.3777 0Z" fill="white"/>
</svg>
