<svg width="18" height="18" viewBox="0 0 18 18" fill="none" xmlns="http://www.w3.org/2000/svg">
<path d="M8.13741 10.725L7.2749 9.86247L16.9499 0.224976L17.7749 1.04997L8.13741 10.725Z" fill="white"/>
<path d="M17.9999 6.4125H16.7249V1.275H11.5874V0H17.9999V6.4125Z" fill="white"/>
<path d="M14.775 18H1.9125C0.862502 18 0 17.1375 0 16.0875V3.225C0 2.175 0.862502 1.3125 1.9125 1.3125H9V2.5875H1.9125C1.575 2.5875 1.275 2.8875 1.275 3.225V16.0875C1.275 16.425 1.575 16.725 1.9125 16.725H14.775C15.1125 16.725 15.4125 16.425 15.4125 16.0875V9H16.6875V16.0875C16.725 17.1375 15.8625 18 14.775 18Z" fill="white"/>
</svg>
