<svg width="112" height="68" viewBox="0 0 112 68" fill="none" xmlns="http://www.w3.org/2000/svg">
<path d="M31.4296 24.9071C31.4296 26.2731 31.5773 27.3806 31.8357 28.1928C32.131 29.005 32.5002 29.891 33.017 30.8508C33.2016 31.1462 33.2755 31.4415 33.2755 31.6999C33.2755 32.0691 33.054 32.4383 32.574 32.8075L30.2482 34.358C29.916 34.5795 29.5837 34.6903 29.2884 34.6903C28.9192 34.6903 28.55 34.5057 28.1809 34.1734C27.664 33.6197 27.221 33.029 26.8518 32.4383C26.4827 31.8107 26.1135 31.1093 25.7074 30.2602C22.8278 33.6566 19.2099 35.3548 14.8537 35.3548C11.7526 35.3548 9.27913 34.4688 7.47017 32.6967C5.66122 30.9247 4.73828 28.562 4.73828 25.6086C4.73828 22.4706 5.8458 19.9233 8.09777 18.0036C10.3497 16.0839 13.34 15.124 17.1425 15.124C18.3977 15.124 19.6898 15.2348 21.0558 15.4194C22.4217 15.6039 23.8246 15.8993 25.3013 16.2315V13.5366C25.3013 10.7308 24.7106 8.77422 23.5662 7.62977C22.3848 6.48533 20.3913 5.93157 17.5486 5.93157C16.2565 5.93157 14.9275 6.07924 13.5615 6.4115C12.1956 6.74376 10.8666 7.14985 9.57447 7.66669C8.98379 7.92511 8.54078 8.07278 8.28236 8.14662C8.02393 8.22045 7.83935 8.25737 7.69168 8.25737C7.17483 8.25737 6.91641 7.8882 6.91641 7.11293V5.30398C6.91641 4.7133 6.99024 4.27029 7.17483 4.01187C7.35942 3.75344 7.69168 3.49502 8.20852 3.2366C9.50063 2.57209 11.0512 2.01832 12.8601 1.57531C14.6691 1.09539 16.5888 0.873884 18.6192 0.873884C23.0124 0.873884 26.2242 1.87065 28.2916 3.8642C30.3221 5.85774 31.3557 8.88497 31.3557 12.9459V24.9071H31.4296ZM16.4411 30.5186C17.6594 30.5186 18.9146 30.2971 20.2436 29.8541C21.5726 29.4111 22.754 28.5989 23.7508 27.4914C24.3414 26.7899 24.7844 26.0147 25.006 25.1286C25.2275 24.2426 25.3751 23.172 25.3751 21.9168V20.3663C24.3045 20.1079 23.1601 19.8864 21.9787 19.7387C20.7974 19.591 19.6529 19.5172 18.5085 19.5172C16.035 19.5172 14.2261 19.9971 13.0078 20.9939C11.7895 21.9907 11.1988 23.3935 11.1988 25.2394C11.1988 26.9745 11.6418 28.2666 12.5648 29.1526C13.4508 30.0756 14.7429 30.5186 16.4411 30.5186ZM46.0858 34.5057C45.4213 34.5057 44.9783 34.3949 44.6829 34.1365C44.3876 33.915 44.1292 33.3981 43.9077 32.6967L35.2321 4.15954C35.0106 3.42119 34.8998 2.94126 34.8998 2.68284C34.8998 2.09216 35.1952 1.7599 35.7858 1.7599H39.4038C40.1052 1.7599 40.5851 1.87065 40.8435 2.12908C41.1389 2.35058 41.3604 2.86743 41.5819 3.56886L47.784 28.0082L53.5431 3.56886C53.7277 2.83051 53.9492 2.35058 54.2446 2.12908C54.5399 1.90757 55.0567 1.7599 55.7213 1.7599H58.6747C59.3761 1.7599 59.856 1.87065 60.1514 2.12908C60.4467 2.35058 60.7051 2.86743 60.8528 3.56886L66.6857 28.3035L73.0724 3.56886C73.294 2.83051 73.5524 2.35058 73.8108 2.12908C74.1061 1.90757 74.5861 1.7599 75.2506 1.7599H78.6839C79.2746 1.7599 79.6068 2.05524 79.6068 2.68284C79.6068 2.86743 79.5699 3.05201 79.533 3.27352C79.4961 3.49502 79.4222 3.79036 79.2746 4.19645L70.3775 32.7336C70.156 33.472 69.8976 33.9519 69.6022 34.1734C69.3069 34.3949 68.827 34.5426 68.1994 34.5426H65.0245C64.323 34.5426 63.8431 34.4318 63.5478 34.1734C63.2524 33.915 62.994 33.4351 62.8463 32.6967L57.1241 8.88497L51.4388 32.6598C51.2542 33.3981 51.0327 33.8781 50.7374 34.1365C50.4421 34.3949 49.9252 34.5057 49.2607 34.5057H46.0858ZM93.5247 35.5024C91.605 35.5024 89.6853 35.2809 87.8394 34.8379C85.9936 34.3949 84.5538 33.915 83.5939 33.3612C83.0032 33.029 82.5971 32.6598 82.4495 32.3275C82.3018 31.9953 82.228 31.6261 82.228 31.2938V29.4111C82.228 28.6358 82.5233 28.2666 83.0771 28.2666C83.2986 28.2666 83.5201 28.3035 83.7416 28.3774C83.9631 28.4512 84.2953 28.5989 84.6645 28.7465C85.9197 29.3003 87.2857 29.7433 88.7254 30.0387C90.2021 30.334 91.6419 30.4817 93.1186 30.4817C95.4444 30.4817 97.2534 30.0756 98.5086 29.2634C99.7638 28.4512 100.428 27.2698 100.428 25.7562C100.428 24.7225 100.096 23.8734 99.4315 23.172C98.767 22.4706 97.5118 21.843 95.7028 21.2523L90.3498 19.591C87.6548 18.7419 85.6613 17.4867 84.443 15.8254C83.2247 14.2011 82.5972 12.3921 82.5972 10.4724C82.5972 8.92189 82.9294 7.55594 83.5939 6.37458C84.2584 5.19322 85.1445 4.15954 86.252 3.34735C87.3595 2.49825 88.6147 1.87065 90.0914 1.42765C91.5681 0.984636 93.1186 0.800049 94.743 0.800049C95.5552 0.800049 96.4043 0.836966 97.2165 0.947719C98.0656 1.05847 98.8408 1.20614 99.6161 1.35381C100.354 1.5384 101.056 1.72298 101.72 1.94449C102.385 2.16599 102.902 2.3875 103.271 2.609C103.788 2.90434 104.157 3.19968 104.378 3.53194C104.6 3.82728 104.711 4.23337 104.711 4.75021V6.48533C104.711 7.2606 104.415 7.66669 103.862 7.66669C103.566 7.66669 103.086 7.51902 102.459 7.22368C100.354 6.26383 97.9917 5.7839 95.3706 5.7839C93.2663 5.7839 91.605 6.11616 90.4606 6.81759C89.3161 7.51902 88.7254 8.58963 88.7254 10.1032C88.7254 11.1369 89.0946 12.0229 89.833 12.7244C90.5713 13.4258 91.9373 14.1272 93.8939 14.7548L99.1362 16.4161C101.794 17.2652 103.714 18.4466 104.858 19.9602C106.003 21.4738 106.557 23.2089 106.557 25.1286C106.557 26.7161 106.224 28.1559 105.597 29.4111C104.932 30.6663 104.046 31.7738 102.902 32.6598C101.757 33.5827 100.391 34.2472 98.8039 34.7272C97.1426 35.244 95.4075 35.5024 93.5247 35.5024Z" fill="#3F3F41"/>
<path d="M100.502 53.4444C88.356 62.4153 70.7095 67.1777 55.5364 67.1777C34.272 67.1777 15.1118 59.3142 0.640184 46.2455C-0.504256 45.2118 0.529432 43.8089 1.89538 44.6211C17.5484 53.7028 36.8562 59.2035 56.8285 59.2035C70.3034 59.2035 85.1073 56.3978 98.7298 50.6386C100.76 49.7157 102.495 51.9677 100.502 53.4444Z" fill="#3F3F41"/>
<path d="M105.56 47.6853C104.009 45.6918 95.2966 46.7255 91.3464 47.2054C90.1651 47.3531 89.9805 46.3194 91.0511 45.5441C97.9916 40.671 109.399 42.0739 110.728 43.6982C112.057 45.3595 110.359 56.767 103.861 62.2308C102.865 63.0799 101.905 62.6369 102.348 61.5294C103.825 57.8745 107.11 49.6419 105.56 47.6853Z" fill="#3F3F41"/>
</svg>
