<svg width="26" height="30" viewBox="0 0 26 30" fill="none" xmlns="http://www.w3.org/2000/svg">
<g clip-path="url(#clip0_0_43)">
<path fill-rule="evenodd" clip-rule="evenodd" d="M24.2669 6.97652L24.95 5.30263C24.95 5.30263 24.0807 4.37234 23.0252 3.31819C21.9701 2.26403 19.7352 2.88423 19.7352 2.88423L17.1902 0H8.2511L5.70611 2.88423C5.70611 2.88423 3.47121 2.26403 2.41615 3.31819C1.36063 4.37234 0.491811 5.30263 0.491811 5.30263L1.17485 6.97652L0.305115 9.45685C0.305115 9.45685 2.86149 19.1268 3.16111 20.308C3.7508 22.6331 4.15425 23.5319 5.83042 24.7104C7.50613 25.8884 10.5479 27.9343 11.0443 28.2449C11.5411 28.5545 12.1622 29.0827 12.7209 29.0827C13.2796 29.0827 13.9003 28.5545 14.3966 28.2449C14.8934 27.9348 17.9347 25.8884 19.6113 24.7104C21.2871 23.5324 21.691 22.6331 22.2807 20.308C22.5798 19.1268 25.1357 9.45685 25.1357 9.45685L24.2669 6.97652Z" fill="url(#paint0_linear_0_43)"/>
<path fill-rule="evenodd" clip-rule="evenodd" d="M15.8865 5.24025C16.259 5.24025 19.0217 4.7134 19.0217 4.7134C19.0217 4.7134 22.2952 8.6659 22.2952 9.51105C22.2952 10.2096 22.0134 10.4828 21.6819 10.8052C21.6126 10.8726 21.5407 10.9418 21.4692 11.0183L19.0148 13.6216C18.9885 13.6492 18.9618 13.6766 18.9347 13.7035C18.6897 13.9494 18.3291 14.3119 18.5831 14.9139L18.6355 15.0363C18.9146 15.6884 19.2594 16.4935 18.8208 17.3086C18.3541 18.1765 17.555 18.7557 17.0427 18.6596C16.5309 18.564 15.3278 17.9361 14.8856 17.6496C14.4435 17.3628 13.0415 16.208 13.0415 15.7658C13.0415 15.3974 14.0496 14.7845 14.5396 14.4863C14.637 14.4271 14.714 14.3806 14.7582 14.3506C14.8087 14.3164 14.8934 14.2641 14.9977 14.1994C15.4444 13.9216 16.2517 13.4207 16.2722 13.199C16.2973 12.9249 16.2877 12.8447 15.9271 12.1681C15.8506 12.0242 15.7608 11.8703 15.6684 11.7109C15.3251 11.1212 14.9407 10.4609 15.0264 9.98781C15.122 9.45367 15.9598 9.14767 16.6693 8.88812C16.7576 8.85624 16.8446 8.82437 16.9275 8.79295L17.6665 8.51564C18.3751 8.25062 19.1619 7.956 19.2921 7.89635C19.4716 7.81393 19.4251 7.7347 18.881 7.68324C18.7929 7.67461 18.7048 7.6655 18.6168 7.65592C17.9429 7.58443 16.7002 7.45283 16.0964 7.62086C15.9776 7.6541 15.8446 7.69007 15.7048 7.72787C15.0264 7.91138 14.1944 8.13632 14.1143 8.2661C14.1006 8.28887 14.087 8.30845 14.0737 8.32666C13.9972 8.43504 13.9476 8.50607 14.0323 8.9669C14.0574 9.10441 14.1093 9.37444 14.1735 9.70867C14.3602 10.6868 14.653 12.2122 14.6898 12.5547C14.6949 12.6029 14.7008 12.6489 14.7062 12.6935C14.7531 13.076 14.7841 13.3306 14.3397 13.4321L14.2236 13.4585C13.7218 13.5733 12.9864 13.7422 12.7209 13.7422C12.455 13.7422 11.7191 13.5737 11.2173 13.4585L11.1016 13.4321C10.6572 13.3306 10.6886 13.076 10.7355 12.6935C10.741 12.6489 10.7465 12.6025 10.7515 12.5547C10.7883 12.2118 11.0816 10.6822 11.2692 9.70457C11.333 9.37216 11.3844 9.1035 11.4095 8.9669C11.4937 8.50607 11.4441 8.43504 11.3676 8.32666C11.3535 8.30677 11.3398 8.28658 11.3266 8.2661C11.2473 8.13632 10.4159 7.91138 9.73693 7.72787C9.59713 7.69007 9.46371 7.6541 9.34532 7.62086C8.74106 7.45238 7.49885 7.58443 6.82492 7.65592C6.72201 7.66685 6.63276 7.67641 6.56081 7.68324C6.01621 7.7347 5.97021 7.81393 6.14963 7.89635C6.2794 7.956 7.06626 8.25062 7.77434 8.51564C8.04619 8.61718 8.30711 8.71463 8.51384 8.79295C8.59717 8.82437 8.68369 8.85579 8.77248 8.88857C9.48193 9.14813 10.3198 9.45367 10.4154 9.98781C10.5006 10.4609 10.1162 11.1212 9.77336 11.7109C9.68046 11.8703 9.59121 12.0242 9.51426 12.1681C9.15407 12.8447 9.14451 12.9249 9.16955 13.199C9.18959 13.4212 9.99648 13.9216 10.4436 14.1994C10.5479 14.2641 10.6326 14.3164 10.6832 14.3506C10.7278 14.3806 10.8043 14.4271 10.9017 14.4863C11.3917 14.7841 12.3999 15.397 12.3999 15.7658C12.3999 16.2075 10.9983 17.3628 10.5557 17.6496C10.114 17.9365 8.91091 18.564 8.39863 18.6596C7.88681 18.7553 7.08721 18.1765 6.62092 17.309C6.18241 16.4935 6.52666 15.6884 6.80579 15.0368L6.85816 14.9139C7.11271 14.3119 6.75206 13.9494 6.50662 13.7035C6.4797 13.6766 6.45313 13.6492 6.42694 13.6216L3.97256 11.0183C3.90062 10.9422 3.82867 10.8726 3.75946 10.8052C3.42796 10.4832 3.14655 10.2096 3.14655 9.51105C3.14655 8.66636 6.42011 4.7134 6.42011 4.7134C6.42011 4.7134 9.1823 5.24025 9.55479 5.24025C9.85213 5.24025 10.4259 5.04308 11.0242 4.83726C11.1759 4.78535 11.3289 4.73253 11.4796 4.68244C12.2241 4.43427 12.7209 4.43245 12.7209 4.43245C12.7209 4.43245 13.2172 4.43427 13.9622 4.68244C14.1125 4.73253 14.2659 4.78535 14.4175 4.83726C15.0154 5.04308 15.5896 5.24025 15.8865 5.24025ZM15.4125 19.2224C15.9963 19.523 16.4106 19.7361 16.5673 19.834C16.7699 19.9606 16.6465 20.1996 16.4616 20.3303C16.2772 20.4601 13.7964 22.379 13.556 22.5912L13.4581 22.6782C13.2263 22.8872 12.9303 23.1535 12.7204 23.1535C12.511 23.1535 12.215 22.8867 11.9827 22.6782L11.8858 22.5912C11.6444 22.379 9.16409 20.4601 8.97967 20.3299C8.79525 20.1996 8.67139 19.961 8.87403 19.8335C9.03067 19.7361 9.4455 19.5225 10.0302 19.2215L10.5857 18.9351C11.46 18.4834 12.5506 18.0986 12.7209 18.0986C12.8907 18.0986 13.9809 18.4829 14.8561 18.9351C15.0546 19.038 15.2408 19.1346 15.4125 19.2224Z" fill="white"/>
<path fill-rule="evenodd" clip-rule="evenodd" d="M19.7355 2.88423L17.1905 0H8.25139L5.7064 2.88423C5.7064 2.88423 3.47151 2.26404 2.41644 3.31819C2.41644 3.31819 5.3963 3.04953 6.4204 4.7134C6.4204 4.7134 9.18259 5.24025 9.55508 5.24025C9.92756 5.24025 10.7345 4.93061 11.4794 4.68244C12.2244 4.43427 12.7212 4.43245 12.7212 4.43245C12.7212 4.43245 13.2175 4.43427 13.9625 4.68244C14.7074 4.93061 15.5143 5.24025 15.8868 5.24025C16.2593 5.24025 19.0219 4.7134 19.0219 4.7134C20.046 3.04953 23.0254 3.31819 23.0254 3.31819C21.9704 2.26404 19.7355 2.88423 19.7355 2.88423Z" fill="url(#paint1_linear_0_43)"/>
</g>
<defs>
<linearGradient id="paint0_linear_0_43" x1="0.30557" y1="29.2881" x2="25.1357" y2="29.2881" gradientUnits="userSpaceOnUse">
<stop stop-color="#FF5500"/>
<stop offset="0.41" stop-color="#FF5500"/>
<stop offset="0.582" stop-color="#FF2000"/>
<stop offset="1" stop-color="#FF2000"/>
</linearGradient>
<linearGradient id="paint1_linear_0_43" x1="2.85905" y1="5.22112" x2="23.0254" y2="5.22112" gradientUnits="userSpaceOnUse">
<stop stop-color="#FF452A"/>
<stop offset="1" stop-color="#FF2000"/>
</linearGradient>
<clipPath id="clip0_0_43">
<rect width="25.5" height="29.1429" fill="white"/>
</clipPath>
</defs>
</svg>
