<svg width="22" height="26" viewBox="0 0 22 26" fill="none" xmlns="http://www.w3.org/2000/svg">
<path d="M22 16.543V2.36328C22 1.05806 20.9442 0 19.6429 0H4.71429C2.11063 0 0 2.11612 0 4.72656V20.4818C0 23.0922 2.11063 25.2083 4.71429 25.2083H20.4286C21.2963 25.2083 22 24.5028 22 23.6771C22 23.1001 21.6755 22.6176 21.2143 22.3429V18.3371C21.6955 17.8625 22 17.2421 22 16.543ZM7.02723 6.30208H16.4558C16.9321 6.30208 17.2857 6.65658 17.2857 7.08984C17.2857 7.52311 16.9321 7.8776 16.5 7.8776H7.02723C6.63929 7.8776 6.28571 7.52311 6.28571 7.08984C6.28571 6.65658 6.63929 6.30208 7.02723 6.30208ZM7.02723 9.45313H16.4558C16.9321 9.45313 17.2857 9.80762 17.2857 10.2409C17.2857 10.6742 16.9321 11.0286 16.5 11.0286H7.02723C6.63929 11.0286 6.28571 10.6742 6.28571 10.2409C6.28571 9.80762 6.63929 9.45313 7.02723 9.45313ZM18.8571 22.0573H4.71429C3.84656 22.0573 3.14286 21.3518 3.14286 20.4818C3.14286 19.6118 3.84656 18.9063 4.71429 18.9063H18.8571V22.0573Z" fill="white"/>
</svg>
