<svg width="59" height="54" viewBox="0 0 59 54" fill="none" xmlns="http://www.w3.org/2000/svg">
<path d="M22.7624 43.2998L22.7625 43.2998L24.382 41.878L24.3823 41.8778C24.5155 41.7612 24.6866 41.6971 24.8635 41.6971H33.6244C33.8069 41.6971 33.9832 41.7648 34.1189 41.8899L35.6644 43.3111C35.6644 43.3111 35.6645 43.3112 35.6645 43.3112L35.6648 43.3114L22.7624 43.2998ZM22.7624 43.2998C22.4599 43.5656 22.4284 44.0267 22.695 44.3302C22.8401 44.4955 23.0427 44.5786 23.244 44.5786C23.4142 44.5786 23.587 44.5194 23.7256 44.3976L25.1382 43.1569H33.3394M22.7624 43.2998L33.3394 43.1569M33.3394 43.1569L34.6756 44.3856L33.3394 43.1569ZM44.5254 31.5695L43.9463 43.2112L38.1307 49.7261L33.1082 45.4046L33.1079 45.4043C32.9747 45.2901 32.8059 45.2284 32.6318 45.2284H25.509C25.3116 45.2284 25.1241 45.3082 24.9868 45.4477L24.9861 45.4485L20.8336 49.7082L14.7946 43.6692L14.2917 30.9482L21.0091 33.2917L21.0102 33.292C21.2333 33.3688 21.4761 33.3345 21.6683 33.2005L21.669 33.2L27.7706 28.9138L27.5689 33.5771L27.5689 33.5776C27.5523 33.9794 27.863 34.3208 28.2664 34.3386L28.2664 34.3389H28.2775H28.2775H28.2776H28.2776H28.2777H28.2777H28.2777H28.2778H28.2778H28.2779H28.2779H28.2779H28.278H28.278H28.2781H28.2781H28.2782H28.2782H28.2782H28.2783H28.2783H28.2784H28.2784H28.2784H28.2785H28.2785H28.2786H28.2786H28.2786H28.2787H28.2787H28.2788H28.2788H28.2789H28.2789H28.2789H28.279H28.279H28.2791H28.2791H28.2791H28.2792H28.2792H28.2793H28.2793H28.2793H28.2794H28.2794H28.2795H28.2795H28.2796H28.2796H28.2796H28.2797H28.2797H28.2798H28.2798H28.2798H28.2799H28.2799H28.28H28.28H28.28H28.2801H28.2801H28.2802H28.2802H28.2803H28.2803H28.2803H28.2804H28.2804H28.2805H28.2805H28.2805H28.2806H28.2806H28.2807H28.2807H28.2807H28.2808H28.2808H28.2809H28.2809H28.281H28.281H28.281H28.2811H28.2811H28.2812H28.2812H28.2812H28.2813H28.2813H28.2814H28.2814H28.2814H28.2815H28.2815H28.2816H28.2816H28.2817H28.2817H28.2817H28.2818H28.2818H28.2819H28.2819H28.2819H28.282H28.282H28.2821H28.2821H28.2821H28.2822H28.2822H28.2823H28.2823H28.2824H28.2824H28.2824H28.2825H28.2825H28.2826H28.2826H28.2826H28.2827H28.2827H28.2828H28.2828H28.2828H28.2829H28.2829H28.283H28.283H28.2831H28.2831H28.2831H28.2832H28.2832H28.2833H28.2833H28.2833H28.2834H28.2834H28.2835H28.2835H28.2835H28.2836H28.2836H28.2837H28.2837H28.2838H28.2838H28.2838H28.2839H28.2839H28.284H28.284H28.284H28.2841H28.2841H28.2842H28.2842H28.2842H28.2843H28.2843H28.2844H28.2844H28.2845H28.2845H28.2845H28.2846H28.2846H28.2847H28.2847H28.2847H28.2848H28.2848H28.2849H28.2849H28.2849H28.285H28.285H28.2851H28.2851H28.2852H28.2852H28.2852H28.2853H28.2853H28.2854H28.2854H28.2854H28.2855H28.2855H28.2856H28.2856H28.2857H28.2857H28.2857H28.2858H28.2858H28.2859H28.2859H28.2859H28.286H28.286H28.2861H28.2861H28.2861H28.2862H28.2862H28.2863H28.2863H28.2864H28.2864H28.2864H28.2865H28.2865H28.2866H28.2866H28.2866H28.2867H28.2867H28.2868H28.2868H28.2868H28.2869H28.2869H28.287H28.287H28.2871H28.2871H28.2871H28.2872H28.2872H28.2873H28.2873H28.2873H28.2874H28.2874H28.2875H28.2875H28.2875H28.2876H28.2876H28.2877H28.2877H28.2878H28.2878H28.2878H28.2879H28.2879H28.288H28.288H28.288H28.2881H28.2881H28.2882H28.2882H28.2882H28.2883H28.2883H28.2884H28.2884H28.2885H28.2885H28.2885H28.2886H28.2886H28.2887H28.2887H28.2887H28.2888H28.2888H28.2889H28.2889H28.2889H28.289H28.289H28.2891H28.2891H28.2892H28.2892H28.2892H28.2893H28.2893H28.2894H28.2894H28.2894H28.2895H28.2895H28.2896H28.2896H28.2896H28.2897H28.2897H28.2898H28.2898H28.2899H28.2899H28.2899H28.29H28.29H28.2901H28.2901H28.2901H28.2902H28.2902H28.2903H28.2903H28.2903H28.2904H28.2904H28.2905H28.2905H28.2906H28.2906H28.2906H28.2907H28.2907H28.2908H28.2908H28.2908H28.2909H28.2909H28.291H28.291H28.291H28.2911H28.2911H28.2912H28.2912H28.2913H28.2913H28.2913H28.2914H28.2914H28.2915H28.2915H28.2915H28.2916H28.2916H28.2917H28.2917H28.2918H28.2918H28.2918H28.2919H28.2919H28.292H28.292H28.292H28.2921H28.2921H28.2922H28.2922H28.2922H28.2923H28.2923H28.2924H28.2924H28.2925H28.2925H28.2925H28.2926H28.2926H28.2927H28.2927H28.2927H28.2928H28.2928H28.2929H28.2929H28.2929H28.293H28.293H28.2931H28.2931H28.2932H28.2932H28.2932H28.2933H28.2933H28.2934H28.2934H28.2934H28.2935H28.2935H28.2936H28.2936H28.2936H28.2937H28.2937H28.2938H28.2938H28.2939H28.2939H28.2939H28.294H28.294H28.2941H28.2941H28.2941H28.2942H28.2942H28.2943H28.2943H28.2943H28.2944H28.2944H28.2945H28.2945H28.2946H28.2946H28.2946H28.2947H28.2947H28.2948H28.2948H28.2948H28.2949H28.2949H28.295H28.295H28.295H28.2951H28.2951H28.2952H28.2952H28.2953H28.2953H28.2953H28.2954H28.2954H28.2955H28.2955H28.2955H28.2956H28.2956H28.2957H28.2957H28.2957H28.2958H28.2958H28.2959H28.2959H28.296H28.296H28.296H28.2961H28.2961H28.2962H28.2962H28.2962H28.2963H28.2963H28.2964H28.2964H28.2964H28.2965H28.2965H28.2966H28.2966H28.2967H28.2967H28.2967H28.2968H28.2968H28.2969H28.2969H28.2969H28.297H28.297H28.2971H28.2971H28.2971H28.2972H28.2972H28.2973H28.2973H28.2974H28.2974H28.2974H28.2975H28.2975H28.2976H28.2976H28.2976H28.2977H28.2977H28.2978H28.2978H28.2978H28.2979H28.2979H28.298H28.298H28.2981H28.2981H28.2981H28.2982H28.2982H28.2983H28.2983H28.2983H28.2984H28.2984H28.2985H28.2985H28.2985H28.2986C28.6874 34.3389 29.0115 34.034 29.0282 33.6409C29.0282 33.6409 29.0283 33.6408 29.0283 33.6408C29.0283 33.6408 29.0283 33.6407 29.0283 33.6407L29.2785 27.8545L29.3404 27.811L36.7328 33.5843C36.7331 33.5845 36.7335 33.5848 36.7338 33.5851C36.9191 33.7318 37.1682 33.7802 37.3957 33.7088L44.5254 31.5695ZM31.8885 36.2033L31.8882 36.2033L29.3763 36.7024L26.8863 36.034C26.886 36.0339 26.8857 36.0339 26.8854 36.0338C26.4913 35.9256 26.0936 36.1629 25.9905 36.5496C25.8861 36.9386 26.1168 37.3389 26.5064 37.4434C26.5064 37.4435 26.5064 37.4435 26.5065 37.4435L29.1622 38.157C29.224 38.1737 29.2873 38.182 29.3514 38.182C29.3993 38.182 29.4451 38.1772 29.4883 38.1697L29.4883 38.1697L29.4939 38.1686L32.1731 37.6364C32.1732 37.6364 32.1732 37.6364 32.1732 37.6364C32.5694 37.5578 32.8256 37.1726 32.7473 36.7775L32.7472 36.7773C32.6688 36.3825 32.2849 36.125 31.8885 36.2033Z" stroke="#23F7DD" stroke-width="0.5"/>
<path d="M20.8468 50.9769L20.8468 50.9768H20.8406C20.7789 50.9768 20.7211 50.9528 20.6789 50.9101L20.6781 50.9094L13.9142 44.1454L13.9134 44.1446C13.8726 44.1042 13.8488 44.0502 13.8465 43.9921L13.8465 43.9918L13.2892 29.9145C13.2892 29.9145 13.2892 29.9144 13.2892 29.9144C13.2863 29.8388 13.3208 29.7663 13.3813 29.7209C13.4443 29.6755 13.5228 29.6638 13.5957 29.6886C13.5959 29.6887 13.5961 29.6887 13.5963 29.6888L21.0928 32.3035L21.2139 32.3458L21.3188 32.272L29.2309 26.7141L29.2314 26.7138C29.3135 26.6558 29.4244 26.6584 29.5043 26.7211L29.5047 26.7214L37.13 32.6757L37.2319 32.7552L37.3557 32.7181L45.2397 30.3522L45.2416 30.3516C45.3099 30.3305 45.3873 30.3441 45.449 30.3914C45.5074 30.4375 45.5402 30.5093 45.5364 30.584L45.5364 30.5841L44.8932 43.5164C44.8932 43.5164 44.8931 43.5164 44.8931 43.5164C44.8905 43.5682 44.8703 43.6178 44.8347 43.6576L44.8344 43.6578L38.3698 50.9001L38.3695 50.9004C38.3246 50.9509 38.2625 50.9768 38.1983 50.9768C38.1449 50.9768 38.0913 50.9585 38.0475 50.9212C38.0474 50.9212 38.0473 50.9211 38.0472 50.921L32.6166 46.2485L32.5463 46.188H32.4536H25.7115H25.6061L25.5325 46.2635L21.0055 50.9077L21.0047 50.9085C20.9733 50.941 20.9518 50.9554 20.9345 50.9633C20.9187 50.9705 20.8936 50.9781 20.8468 50.9769Z" stroke="#23F7DD" stroke-width="0.5"/>
<path d="M13.5195 13.3716C13.4924 13.3716 13.464 13.3666 13.4352 13.3554L18.9093 6.55735C18.8627 6.58908 15.4271 8.93239 13.7341 13.2249C13.6978 13.3163 13.611 13.3716 13.5195 13.3716Z" stroke="#23F7DD" stroke-width="0.5"/>
<path d="M22.8146 3.97941L22.8146 3.97944L22.819 3.97856C22.9371 3.9545 23.0589 4.03405 23.0829 4.16376C23.1061 4.28856 23.0236 4.40868 22.8984 4.43197C22.5778 4.49152 22.0993 4.67981 21.6666 4.86959C21.2269 5.06244 20.8064 5.26954 20.588 5.3829C20.5507 5.40155 20.5145 5.40944 20.4814 5.40944C20.3972 5.40944 20.3172 5.36403 20.2757 5.28481C20.2173 5.17118 20.262 5.03225 20.3744 4.97397L20.2594 4.75201L20.374 4.97417C20.4578 4.93093 20.8757 4.71668 21.3731 4.49486C21.8777 4.26982 22.4377 4.04919 22.8146 3.97941Z" stroke="#23F7DD" stroke-width="0.5"/>
<path d="M44.3131 20.4054L44.313 20.4056C42.7911 24.6744 40.8587 26.8996 38.6361 27.2433C38.4273 27.275 38.2219 27.2904 38.0198 27.2904C36.6198 27.2904 35.3494 26.5723 34.3998 25.8113C33.4563 25.0551 32.8606 24.2815 32.8117 24.2174C32.7677 24.1591 32.7541 24.0819 32.7758 24.0117L32.7759 24.0113C32.7978 23.9398 32.8524 23.884 32.9215 23.8607L32.9217 23.8606L44.022 20.1105L44.022 20.1105L44.0242 20.1098C44.1055 20.0814 44.1969 20.1027 44.2599 20.1668C44.3221 20.2302 44.3424 20.3234 44.3131 20.4054Z" stroke="#23F7DD" stroke-width="0.5"/>
<path d="M14.1148 20.406L14.1148 20.4058C14.0855 20.324 14.1056 20.2311 14.1674 20.1678C14.23 20.1052 14.3233 20.0832 14.406 20.111C14.4061 20.111 14.4061 20.111 14.4062 20.111L25.5061 23.861L25.5063 23.8611C25.5755 23.8844 25.63 23.9402 25.652 24.0117L25.6521 24.0121C25.6737 24.0823 25.6602 24.1594 25.6162 24.2177C25.5676 24.2814 24.9717 25.0553 24.0277 25.8117C23.0781 26.5727 21.8077 27.2908 20.4081 27.2908C20.206 27.2908 20.0006 27.2754 19.7918 27.2437C17.5692 26.9001 15.6368 24.6748 14.1148 20.406Z" stroke="#23F7DD" stroke-width="0.5"/>
<path d="M22.8146 3.97941L22.8146 3.97944L22.819 3.97856C22.9371 3.9545 23.0589 4.03405 23.0829 4.16376C23.1061 4.28856 23.0236 4.40868 22.8984 4.43197C22.5778 4.49152 22.0993 4.67981 21.6666 4.86959C21.2269 5.06244 20.8064 5.26954 20.588 5.3829C20.5507 5.40155 20.5145 5.40944 20.4814 5.40944C20.3972 5.40944 20.3172 5.36403 20.2757 5.28481C20.2173 5.17118 20.262 5.03225 20.3744 4.97397L20.2594 4.75201L20.374 4.97417C20.4578 4.93093 20.8757 4.71668 21.3731 4.49486C21.8777 4.26982 22.4377 4.04919 22.8146 3.97941Z" stroke="#23F7DD" stroke-width="0.5"/>
<path d="M13.5195 13.3716C13.4924 13.3716 13.464 13.3666 13.4352 13.3554L18.9093 6.55735C18.8627 6.58908 15.4271 8.93239 13.7341 13.2249C13.6978 13.3163 13.611 13.3716 13.5195 13.3716Z" stroke="#23F7DD" stroke-width="0.5"/>
<path d="M45.2397 30.3522L45.2417 30.3516C45.3099 30.3305 45.3874 30.3441 45.449 30.3914C45.5074 30.4376 45.5402 30.5093 45.5364 30.5841L45.5364 30.5841L44.8932 43.5164C44.8932 43.5164 44.8931 43.5165 44.8931 43.5165C44.8905 43.5682 44.8703 43.6178 44.8347 43.6576L44.8344 43.6579L38.3698 50.9002L38.3695 50.9005C38.3246 50.9509 38.2625 50.9769 38.1983 50.9769C38.1449 50.9769 38.0913 50.9585 38.0475 50.9213C38.0474 50.9212 38.0473 50.9211 38.0472 50.921L32.6166 46.2485L32.5463 46.188H32.4536H25.7115H25.6061L25.5325 46.2635L21.0055 50.9078L21.0047 50.9085C20.9733 50.941 20.9518 50.9555 20.9345 50.9633C20.9187 50.9705 20.8936 50.9781 20.8468 50.9769L20.8468 50.9769H20.8406C20.7789 50.9769 20.7212 50.9528 20.6789 50.9102L20.6781 50.9094L13.9142 44.1454L13.9134 44.1446C13.8726 44.1042 13.8488 44.0502 13.8465 43.9921L13.8465 43.9919L13.2892 29.9145C13.2892 29.9145 13.2892 29.9145 13.2892 29.9144C13.2863 29.8388 13.3208 29.7664 13.3813 29.7209C13.4443 29.6756 13.5228 29.6639 13.5957 29.6886C13.5959 29.6887 13.5961 29.6887 13.5963 29.6888L21.0928 32.3035L21.2139 32.3458L21.3188 32.2721L29.231 26.7141L29.2314 26.7138C29.3136 26.6558 29.4244 26.6584 29.5043 26.7211L29.5047 26.7214L37.13 32.6757L37.2319 32.7552L37.3557 32.7181L45.2397 30.3522Z" stroke="#23F7DD" stroke-width="0.5"/>
<path d="M14.1148 20.406L14.1148 20.4058C14.0855 20.324 14.1056 20.2311 14.1674 20.1678C14.23 20.1052 14.3233 20.0832 14.406 20.111C14.4061 20.111 14.4061 20.111 14.4062 20.111L25.5061 23.861L25.5063 23.8611C25.5755 23.8844 25.63 23.9402 25.652 24.0117L25.6521 24.0121C25.6737 24.0823 25.6602 24.1594 25.6162 24.2177C25.5676 24.2814 24.9717 25.0553 24.0277 25.8117C23.0781 26.5727 21.8077 27.2908 20.4081 27.2908C20.206 27.2908 20.0006 27.2754 19.7918 27.2437C17.5692 26.9001 15.6368 24.6748 14.1148 20.406Z" stroke="#23F7DD" stroke-width="0.5"/>
<path d="M44.3131 20.4054L44.313 20.4056C42.7911 24.6744 40.8587 26.8996 38.6361 27.2433C38.4273 27.275 38.2219 27.2904 38.0198 27.2904C36.6198 27.2904 35.3494 26.5723 34.3998 25.8113C33.4563 25.0551 32.8606 24.2815 32.8117 24.2174C32.7677 24.1591 32.7541 24.0819 32.7758 24.0117L32.7759 24.0113C32.7978 23.9398 32.8524 23.884 32.9215 23.8607L32.9217 23.8606L44.022 20.1105L44.022 20.1105L44.0242 20.1098C44.1055 20.0814 44.1969 20.1027 44.2599 20.1668C44.3221 20.2302 44.3424 20.3234 44.3131 20.4054Z" stroke="#23F7DD" stroke-width="0.5"/>
<path d="M58.5111 15.0783L53.4215 22.6708C53.3755 22.4968 53.3148 22.2941 53.2362 22.0769C53.0194 21.478 52.6574 20.7436 52.0684 20.206L53.3148 17.5772L53.518 17.1486L53.0495 17.2232L51.3761 17.4897L51.3761 17.4897L51.374 17.49C51.2897 17.5042 51.2047 17.4689 51.1531 17.3966L51.1525 17.3959C51.1017 17.3253 51.0954 17.2316 51.1356 17.1551C51.829 15.8399 53.0922 13.3906 54.2224 11.0721C54.7874 9.913 55.3202 8.78469 55.7322 7.84634C56.14 6.91759 56.4411 6.1496 56.5275 5.72475L56.5275 5.72452C56.5526 5.60048 56.6772 5.52198 56.7859 5.54235L56.7859 5.5424L56.7911 5.54326C56.9126 5.56339 56.9973 5.67721 56.9811 5.8003L56.9811 5.80039L55.8978 14.0869L55.8663 14.3282L56.1066 14.3663L58.3558 14.7226C58.4336 14.735 58.4996 14.7861 58.5311 14.8581C58.5625 14.9298 58.555 15.0129 58.5113 15.078L58.5111 15.0783Z" stroke="#23F7DD" stroke-width="0.5"/>
<mask id="path-13-inside-1_0_68" fill="white">
<path d="M49.5149 18.52L47.854 30.6888L47.5586 32.1136L47.6676 32.0864L49.5235 18.5261L49.5149 18.52Z"/>
</mask>
<path d="M49.5149 18.52L49.8027 18.1111L49.1307 17.6381L49.0195 18.4524L49.5149 18.52ZM47.854 30.6888L48.3436 30.7903L48.3471 30.7734L48.3494 30.7564L47.854 30.6888ZM47.5586 32.1136L47.069 32.0121L46.9073 32.7918L47.6799 32.5987L47.5586 32.1136ZM47.6676 32.0864L47.7889 32.5714L48.1171 32.4894L48.163 32.1542L47.6676 32.0864ZM49.5235 18.5261L50.0189 18.5939L50.0602 18.2924L49.8113 18.1172L49.5235 18.5261ZM49.0195 18.4524L47.3586 30.6211L48.3494 30.7564L50.0103 18.5876L49.0195 18.4524ZM47.3645 30.5872L47.069 32.0121L48.0482 32.2151L48.3436 30.7903L47.3645 30.5872ZM47.6799 32.5987L47.7889 32.5714L47.5464 31.6013L47.4373 31.6285L47.6799 32.5987ZM48.163 32.1542L50.0189 18.5939L49.0282 18.4583L47.1723 32.0186L48.163 32.1542ZM49.8113 18.1172L49.8027 18.1111L49.2272 18.9289L49.2358 18.9349L49.8113 18.1172Z" fill="#23F7DD" mask="url(#path-13-inside-1_0_68)"/>
<path d="M52.0887 26.3794C51.8873 28.1891 50.7604 29.7147 49.1125 30.4402L49.2115 29.7154L49.2115 29.7154L50.3472 21.3972L50.4418 20.7043C50.707 20.9644 51.0729 21.3778 51.407 21.9128C51.9267 22.7451 52.3556 23.8488 52.23 25.1075L52.0887 26.3793C52.0887 26.3793 52.0887 26.3793 52.0887 26.3794Z" stroke="#23F7DD" stroke-width="0.5"/>
<path d="M13.5195 13.3716C13.4924 13.3716 13.464 13.3666 13.4352 13.3554L18.9093 6.55735C18.8627 6.58908 15.4271 8.93239 13.7341 13.2249C13.6978 13.3163 13.611 13.3716 13.5195 13.3716Z" stroke="#23F7DD" stroke-width="0.5"/>
<path d="M22.8146 3.97941L22.8146 3.97944L22.819 3.97856C22.9371 3.9545 23.0589 4.03405 23.0829 4.16376C23.1061 4.28856 23.0236 4.40868 22.8984 4.43197C22.5778 4.49152 22.0993 4.67981 21.6666 4.86959C21.2269 5.06244 20.8064 5.26954 20.588 5.3829C20.5507 5.40155 20.5145 5.40944 20.4814 5.40944C20.3972 5.40944 20.3172 5.36403 20.2757 5.28481C20.2173 5.17118 20.262 5.03225 20.3744 4.97397L20.2594 4.75201L20.374 4.97417C20.4578 4.93093 20.8757 4.71668 21.3731 4.49486C21.8777 4.26982 22.4377 4.04919 22.8146 3.97941Z" stroke="#23F7DD" stroke-width="0.5"/>
<path d="M14.1148 20.406L14.1148 20.4058C14.0855 20.324 14.1056 20.2311 14.1674 20.1678C14.23 20.1052 14.3233 20.0832 14.406 20.111C14.4061 20.111 14.4061 20.111 14.4062 20.111L25.5061 23.861L25.5063 23.8611C25.5755 23.8844 25.63 23.9402 25.652 24.0117L25.6521 24.0121C25.6737 24.0823 25.6602 24.1594 25.6162 24.2177C25.5676 24.2814 24.9717 25.0553 24.0277 25.8117C23.0781 26.5727 21.8077 27.2908 20.4081 27.2908C20.206 27.2908 20.0006 27.2754 19.7918 27.2437C17.5692 26.9001 15.6368 24.6748 14.1148 20.406Z" stroke="#23F7DD" stroke-width="0.5"/>
<path d="M45.2397 30.3522L45.2417 30.3516C45.3099 30.3305 45.3874 30.3441 45.449 30.3914C45.5074 30.4376 45.5402 30.5093 45.5364 30.5841L45.5364 30.5841L44.8932 43.5164C44.8932 43.5164 44.8931 43.5165 44.8931 43.5165C44.8905 43.5682 44.8703 43.6178 44.8347 43.6576L44.8344 43.6579L38.3698 50.9002L38.3695 50.9005C38.3246 50.9509 38.2625 50.9769 38.1983 50.9769C38.1449 50.9769 38.0913 50.9585 38.0475 50.9213C38.0474 50.9212 38.0473 50.9211 38.0472 50.921L32.6166 46.2485L32.5463 46.188H32.4536H25.7115H25.6061L25.5325 46.2635L21.0055 50.9078L21.0047 50.9085C20.9733 50.941 20.9518 50.9555 20.9345 50.9633C20.9187 50.9705 20.8936 50.9781 20.8468 50.9769L20.8468 50.9769H20.8406C20.7789 50.9769 20.7212 50.9528 20.6789 50.9102L20.6781 50.9094L13.9142 44.1454L13.9134 44.1446C13.8726 44.1042 13.8488 44.0502 13.8465 43.9921L13.8465 43.9919L13.2892 29.9145C13.2892 29.9145 13.2892 29.9145 13.2892 29.9144C13.2863 29.8388 13.3208 29.7664 13.3813 29.7209C13.4443 29.6756 13.5228 29.6639 13.5957 29.6886C13.5959 29.6887 13.5961 29.6887 13.5963 29.6888L21.0928 32.3035L21.2139 32.3458L21.3188 32.2721L29.231 26.7141L29.2314 26.7138C29.3136 26.6558 29.4244 26.6584 29.5043 26.7211L29.5047 26.7214L37.13 32.6757L37.2319 32.7552L37.3557 32.7181L45.2397 30.3522Z" stroke="#23F7DD" stroke-width="0.5"/>
<path d="M44.3131 20.4054L44.313 20.4056C42.7911 24.6744 40.8587 26.8996 38.6361 27.2433C38.4273 27.275 38.2219 27.2904 38.0198 27.2904C36.6198 27.2904 35.3494 26.5723 34.3998 25.8113C33.4563 25.0551 32.8606 24.2815 32.8117 24.2174C32.7677 24.1591 32.7541 24.0819 32.7758 24.0117L32.7759 24.0113C32.7978 23.9398 32.8524 23.884 32.9215 23.8607L32.9217 23.8606L44.022 20.1105L44.022 20.1105L44.0242 20.1098C44.1055 20.0814 44.1969 20.1027 44.2599 20.1668C44.3221 20.2302 44.3424 20.3234 44.3131 20.4054Z" stroke="#23F7DD" stroke-width="0.5"/>
<path d="M5.38483 22.6804C5.43179 22.5085 5.49347 22.3081 5.573 22.093C5.79258 21.4993 6.15675 20.7704 6.74321 20.2296L5.48552 17.5769L5.28232 17.1483L5.75074 17.2229L7.42415 17.4894L7.42609 17.4897C7.5112 17.504 7.59557 17.4687 7.64724 17.3964L7.64775 17.3957C7.69861 17.325 7.70492 17.2313 7.66472 17.1549L5.38483 22.6804ZM5.38483 22.6804L0.289236 15.078L0.289027 15.0777C0.245266 15.0126 0.237812 14.9295 0.269178 14.8578C0.300682 14.7858 0.366729 14.7347 0.444507 14.7223L5.38483 22.6804Z" stroke="#23F7DD" stroke-width="0.5"/>
<path d="M38.7183 27.7374L38.7176 27.7375C38.4842 27.7729 38.2536 27.7903 38.0259 27.7903C36.4597 27.7903 35.0793 26.9917 34.0932 26.2014C33.103 25.4078 32.4786 24.597 32.42 24.5202L32.4195 24.5196C32.2777 24.3325 32.2351 24.0878 32.304 23.8642L38.7183 27.7374ZM38.7183 27.7374C41.2398 27.3477 43.2607 24.8631 44.79 20.5736C44.8842 20.3101 44.8185 20.0157 44.6227 19.8164L44.4444 19.9916M38.7183 27.7374L44.4444 19.9916M44.4444 19.9916L44.6227 19.8164C44.4281 19.6183 44.1356 19.5441 43.8671 19.6371C43.8667 19.6372 43.8663 19.6373 43.8658 19.6375L32.768 23.3868M44.4444 19.9916L32.768 23.3868M26.0196 24.5196L26.0192 24.5202C25.9606 24.597 25.336 25.4078 24.3456 26.2014C23.3594 26.9917 21.9791 27.7903 20.4133 27.7903C20.1856 27.7903 19.9549 27.7729 19.7215 27.7374L19.7209 27.7373C17.1993 27.3477 15.1784 24.863 13.6491 20.5734C13.555 20.31 13.6208 20.0157 13.8164 19.8164L13.8175 19.8153C14.0128 19.6189 14.3052 19.5473 14.5708 19.6366L14.5711 19.6367L25.6712 23.3868L26.0196 24.5196ZM26.0196 24.5196C26.1614 24.3325 26.2041 24.0878 26.1351 23.8642M26.0196 24.5196L26.1351 23.8642M19.1951 6.97081C19.5295 6.74589 19.6181 6.29334 19.3938 5.95869C19.1705 5.62543 18.716 5.53122 18.3811 5.75859C18.2079 5.87477 14.6497 8.29755 12.8446 12.8733L12.8446 12.8734C12.697 13.2483 12.8816 13.6721 13.2564 13.8204L13.2572 13.8207C13.3439 13.8547 13.4343 13.8716 13.5243 13.8716C13.8157 13.8716 14.09 13.6957 14.2037 13.4089L14.2039 13.4085C15.8315 9.2813 19.1365 7.01083 19.1951 6.97081ZM19.1951 6.97081C19.1947 6.97103 19.1944 6.97125 19.1941 6.97147L19.0549 6.76381L19.1957 6.97035C19.1956 6.97043 19.1954 6.97058 19.1951 6.97081ZM45.3975 43.5411L45.3975 43.5412C45.3891 43.7083 45.3234 43.8666 45.2121 43.9909L38.7481 51.2326C38.6038 51.3948 38.4033 51.4767 38.2033 51.4767C38.0349 51.4767 37.8651 51.4185 37.7276 51.3012L37.7268 51.3005L32.3658 46.6878H25.8219L21.3692 51.2558C21.3691 51.2559 21.369 51.256 21.369 51.2561C21.3105 51.3165 21.2391 51.3762 21.1465 51.4183C21.0531 51.4608 20.9523 51.479 20.8424 51.4767C20.6507 51.4759 20.4661 51.4002 20.3294 51.2626L20.3296 51.2628L20.5063 51.086L20.3288 51.262L45.3975 43.5411ZM45.3975 43.5411L46.0408 30.6088C46.0408 30.6088 46.0408 30.6088 46.0408 30.6087C46.0526 30.3712 45.9481 30.1431 45.7616 29.997L45.7602 29.9959C45.5753 29.8532 45.33 29.8027 45.1002 29.8733C45.0998 29.8734 45.0994 29.8736 45.099 29.8737L37.3408 32.2018L29.8178 26.3275L45.3975 43.5411ZM32.768 23.3868L32.7678 23.3869C32.5448 23.462 32.3728 23.6405 32.3041 23.8642L32.768 23.3868ZM26.1351 23.8642C26.0663 23.6405 25.8944 23.462 25.6714 23.3868L26.1351 23.8642ZM29.1858 0.252016L29.1858 0.25214L29.1937 0.252169C39.5761 0.290116 44.7437 5.22606 47.2574 9.34283L47.4707 9.21255L47.2574 9.34284C47.5351 9.79778 47.7872 10.2518 48.0161 10.7006L48.2388 10.5871L48.0161 10.7007C49.1742 12.9718 49.6025 15.5425 49.3337 18.0819L49.3295 18.0789L49.2739 18.486L47.6142 30.6463L47.3205 32.0627L47.2397 32.4525L47.3765 32.4183L45.694 44.7124L45.6935 44.7165L45.4453 46.3304L39.4138 52.8104L19.7318 52.8205L13.2574 46.1194L13.1031 44.6515L13.1026 44.647L11.5156 31.8041L11.5183 31.8036L11.4893 31.5693L10.1731 20.9012L10.1733 20.9012L10.1717 20.8912L10.1529 20.7776L10.0473 19.9226L10.0476 19.9226L10.0454 19.9103C9.56192 17.143 9.76276 14.2742 10.8335 11.6931C13.2476 5.87442 17.7176 3.01178 21.6526 1.60273C25.5926 0.191916 28.9818 0.24484 29.1858 0.252016ZM20.1509 4.5298L20.1505 4.53C19.7926 4.7155 19.6527 5.15624 19.8379 5.51464L19.8383 5.51547C19.9688 5.76582 20.2233 5.90939 20.4875 5.90939C20.6026 5.90939 20.7161 5.88147 20.8207 5.82858L20.8207 5.82859L20.8231 5.82734C21.0327 5.71857 21.4441 5.51581 21.8736 5.32745C22.3109 5.13563 22.7398 4.97106 22.996 4.92351L22.9961 4.92348C23.3915 4.84987 23.6544 4.46974 23.5807 4.07245C23.508 3.68078 23.1308 3.40739 22.7277 3.48809C22.2857 3.57031 21.6775 3.81432 21.1756 4.03817C20.6657 4.26557 20.2383 4.48471 20.1509 4.5298ZM13.5664 44.4996L13.7424 44.322L13.5656 44.4988L13.566 44.4992C13.5661 44.4994 13.5663 44.4995 13.5664 44.4996ZM12.7946 29.934L13.3519 44.0112L29.8174 26.3272C29.5645 26.1292 29.2116 26.1193 28.9484 26.3048C28.9483 26.3049 28.9482 26.305 28.948 26.3051L21.1413 31.789L13.7645 29.216L13.7631 29.2155C13.5349 29.1375 13.2857 29.1756 13.0912 29.3171L13.0892 29.3185C12.8956 29.4623 12.7851 29.6927 12.7946 29.934L12.7946 29.934Z" stroke="#23F7DD" stroke-width="0.5"/>
<mask id="path-23-inside-2_0_68" fill="white">
<path d="M9.92187 20.9315L9.90234 20.813L11.2354 31.6L11.2381 31.5996L9.92187 20.9315Z"/>
</mask>
<path d="M9.92187 20.9315L10.4181 20.8703L10.4169 20.8602L10.4152 20.8502L9.92187 20.9315ZM9.90234 20.813L10.3957 20.7317L9.40612 20.8743L9.90234 20.813ZM11.2354 31.6L10.7391 31.6614L10.8037 32.1838L11.3221 32.0925L11.2354 31.6ZM11.2381 31.5996L11.3249 32.092L11.7925 32.0096L11.7343 31.5383L11.2381 31.5996ZM10.4152 20.8502L10.3957 20.7317L9.409 20.8943L9.42853 21.0128L10.4152 20.8502ZM9.40612 20.8743L10.7391 31.6614L11.7316 31.5387L10.3986 20.7517L9.40612 20.8743ZM11.3221 32.0925L11.3249 32.092L11.1513 31.1072L11.1486 31.1076L11.3221 32.0925ZM11.7343 31.5383L10.4181 20.8703L9.42564 20.9927L10.7419 31.6608L11.7343 31.5383Z" fill="#23F7DD" mask="url(#path-23-inside-2_0_68)"/>
<path d="M10.0656 30.5851C10.0503 30.5829 10.035 30.5791 10.0202 30.5737L10.0187 30.5731C9.97403 30.557 9.92971 30.5404 9.88573 30.5232L9.92025 30.8034C9.9248 30.805 9.92935 30.8067 9.9339 30.8083C9.96343 30.8192 9.99368 30.8269 10.024 30.8316L10.0965 30.8227L10.1734 30.8132L10.1305 30.5669C10.1031 30.5717 10.0807 30.5793 10.0656 30.5851ZM10.0656 30.5851C10.0645 30.5855 10.0635 30.5858 10.0626 30.5862C10.055 30.5892 10.0484 30.592 10.044 30.594L10.0383 30.5965L10.035 30.598C10.0338 30.5985 10.0334 30.5986 10.0337 30.5985C10.0344 30.5982 10.0391 30.5963 10.0457 30.5944C10.0562 30.5913 10.0739 30.5873 10.0965 30.5873C10.0863 30.5873 10.0759 30.5865 10.0656 30.5851ZM8.62354 20.4995L8.72701 21.1242L8.62354 20.4995ZM8.62354 20.4995C8.31305 20.7554 7.86595 21.1886 7.46532 21.7749C6.894 22.6111 6.42743 23.7431 6.56836 25.1073C6.56839 25.1076 6.56842 25.1079 6.56846 25.1082L6.70971 26.3794C6.70972 26.3795 6.70972 26.3795 6.70973 26.3795L8.62354 20.4995ZM9.79961 29.8241L10.0476 29.7935L9.7996 29.8241L9.79961 29.8241Z" stroke="#23F7DD" stroke-width="0.5"/>
</svg>
