<svg width="51" height="32" viewBox="0 0 51 32" fill="none" xmlns="http://www.w3.org/2000/svg">
<g clip-path="url(#clip0_4099_297)">
<g clip-path="url(#clip1_4099_297)">
<mask id="mask0_4099_297" style="mask-type:luminance" maskUnits="userSpaceOnUse" x="0" y="0" width="50" height="31">
<path d="M49.8397 0.940796H0.367188V30.0881H49.8397V0.940796Z" fill="white"/>
</mask>
<g mask="url(#mask0_4099_297)">
<path d="M14.4301 11.5748C14.4301 12.1674 14.4951 12.6479 14.6091 13.0002C14.7392 13.3525 14.902 13.7369 15.1298 14.1532C15.2112 14.2814 15.2438 14.4095 15.2438 14.5216C15.2438 14.6817 15.1461 14.8419 14.9345 15.002L13.9093 15.6746C13.7628 15.7708 13.6163 15.8189 13.4862 15.8189C13.3234 15.8189 13.1607 15.7387 12.998 15.5946C12.7701 15.3543 12.5748 15.0981 12.4121 14.8419C12.2494 14.5696 12.0866 14.2654 11.9077 13.897C10.6383 15.3704 9.04341 16.1071 7.1231 16.1071C5.75609 16.1071 4.66575 15.7227 3.86833 14.954C3.07091 14.1853 2.66406 13.1603 2.66406 11.8791C2.66406 10.5178 3.15228 9.41283 4.14499 8.58005C5.13769 7.74727 6.45587 7.33088 8.13208 7.33088C8.68539 7.33088 9.25498 7.37893 9.85708 7.459C10.4592 7.53907 11.0777 7.66719 11.7286 7.81133V6.64224C11.7286 5.42509 11.4683 4.57631 10.9637 4.07984C10.443 3.58337 9.56419 3.34315 8.31109 3.34315C7.74151 3.34315 7.15565 3.4072 6.55352 3.55134C5.95138 3.69548 5.36553 3.87164 4.79594 4.09585C4.53556 4.20795 4.34027 4.27201 4.22636 4.30404C4.11243 4.33608 4.03107 4.35209 3.96598 4.35209C3.73814 4.35209 3.62422 4.19194 3.62422 3.85562V3.07089C3.62422 2.81466 3.65678 2.62247 3.73814 2.51037C3.81951 2.39827 3.96598 2.28616 4.19381 2.17405C4.76339 1.88578 5.44689 1.64556 6.24431 1.45338C7.04173 1.24519 7.88797 1.1491 8.78303 1.1491C10.7196 1.1491 12.1354 1.5815 13.0468 2.44631C13.9418 3.31112 14.3975 4.62434 14.3975 6.38599V11.5748H14.4301ZM7.82288 14.0091C8.35991 14.0091 8.91322 13.9131 9.49908 13.7208C10.0849 13.5287 10.6057 13.1764 11.0451 12.6959C11.3054 12.3916 11.5007 12.0553 11.5984 11.6709C11.696 11.2866 11.7612 10.8221 11.7612 10.2777V9.605C11.2892 9.4929 10.7847 9.39681 10.2639 9.33275C9.74315 9.26869 9.2387 9.23666 8.73421 9.23666C7.64386 9.23666 6.84645 9.44486 6.30941 9.87726C5.77237 10.3096 5.51199 10.9183 5.51199 11.7189C5.51199 12.4717 5.70727 13.0322 6.11412 13.4165C6.50469 13.817 7.07428 14.0091 7.82288 14.0091ZM20.8908 15.7387C20.5979 15.7387 20.4026 15.6907 20.2724 15.5786C20.1421 15.4825 20.0282 15.2583 19.9306 14.954L16.1062 2.57442C16.0086 2.25413 15.9598 2.04594 15.9598 1.93383C15.9598 1.67759 16.09 1.53346 16.3504 1.53346H17.9452C18.2544 1.53346 18.4659 1.5815 18.5799 1.69361C18.7101 1.78969 18.8077 2.01391 18.9053 2.31819L21.6394 12.9201L24.1781 2.31819C24.2594 1.99789 24.3571 1.78969 24.4873 1.69361C24.6175 1.59752 24.8453 1.53346 25.1382 1.53346H26.4402C26.7493 1.53346 26.9609 1.5815 27.0911 1.69361C27.2213 1.78969 27.3352 2.01391 27.4003 2.31819L29.9716 13.0482L32.7869 2.31819C32.8846 1.99789 32.9985 1.78969 33.1125 1.69361C33.2426 1.59752 33.4542 1.53346 33.7471 1.53346H35.2606C35.521 1.53346 35.6674 1.66158 35.6674 1.93383C35.6674 2.01391 35.6512 2.09398 35.6349 2.19007C35.6186 2.28616 35.586 2.41428 35.521 2.59044L31.599 14.97C31.5013 15.2904 31.3874 15.4985 31.2572 15.5946C31.127 15.6907 30.9155 15.7548 30.6388 15.7548H29.2393C28.9301 15.7548 28.7185 15.7067 28.5883 15.5946C28.4581 15.4825 28.3442 15.2743 28.2791 14.954L25.7567 4.62434L23.2505 14.938C23.1691 15.2583 23.0715 15.4665 22.9413 15.5786C22.8111 15.6907 22.5832 15.7387 22.2903 15.7387H20.8908ZM41.8027 16.1712C40.9565 16.1712 40.1101 16.0751 39.2965 15.8828C38.4828 15.6907 37.8481 15.4825 37.425 15.2423C37.1646 15.0981 36.9856 14.938 36.9205 14.7939C36.8554 14.6497 36.8228 14.4896 36.8228 14.3455V13.5287C36.8228 13.1923 36.9531 13.0322 37.1972 13.0322C37.2948 13.0322 37.3925 13.0482 37.4901 13.0803C37.5877 13.1123 37.7342 13.1764 37.8969 13.2404C38.4503 13.4806 39.0524 13.6728 39.6871 13.8009C40.338 13.929 40.9727 13.9931 41.6236 13.9931C42.6489 13.9931 43.4463 13.817 43.9997 13.4646C44.553 13.1123 44.8459 12.5998 44.8459 11.9432C44.8459 11.4948 44.6994 11.1265 44.4065 10.8221C44.1136 10.5178 43.5603 10.2456 42.7628 9.98936L40.4031 9.26869C39.2151 8.90034 38.3363 8.35583 37.7993 7.63516C37.2622 6.93051 36.9856 6.14577 36.9856 5.31299C36.9856 4.64036 37.1321 4.04781 37.425 3.53533C37.718 3.02285 38.1085 2.57443 38.5968 2.2221C39.085 1.85375 39.6383 1.5815 40.2892 1.38932C40.9401 1.19714 41.6236 1.11707 42.3397 1.11707C42.6977 1.11707 43.0721 1.13308 43.43 1.18113C43.8044 1.22917 44.1461 1.29323 44.4879 1.35729C44.8133 1.43736 45.1226 1.51744 45.4155 1.61353C45.7084 1.70962 45.9362 1.80571 46.0989 1.9018C46.3268 2.02992 46.4895 2.15804 46.5871 2.30217C46.6848 2.4303 46.7336 2.60646 46.7336 2.83067V3.58337C46.7336 3.91969 46.6035 4.09585 46.3594 4.09585C46.2291 4.09585 46.0176 4.03179 45.7409 3.90367C44.8133 3.48728 43.7718 3.27909 42.6164 3.27909C41.6888 3.27909 40.9565 3.42322 40.4519 3.72751C39.9474 4.03179 39.6871 4.49623 39.6871 5.15284C39.6871 5.60126 39.8498 5.98562 40.1753 6.2899C40.5007 6.59419 41.1029 6.89847 41.9654 7.17073L44.2763 7.89141C45.448 8.25975 46.2942 8.77222 46.7988 9.42884C47.3032 10.0854 47.5473 10.8381 47.5473 11.6709C47.5473 12.3596 47.4009 12.9841 47.1242 13.5287C46.8312 14.0732 46.4407 14.5537 45.9362 14.938C45.4317 15.3384 44.8296 15.6266 44.1298 15.8348C43.3975 16.059 42.6327 16.1712 41.8027 16.1712Z" fill="white"/>
<path fill-rule="evenodd" clip-rule="evenodd" d="M44.8782 23.955C39.5241 27.8466 31.7452 29.9126 25.0566 29.9126C15.6829 29.9126 7.23675 26.5014 0.857395 20.8321C0.352906 20.3837 0.808574 19.7751 1.41071 20.1274C8.31082 24.0671 16.822 26.4533 25.6262 26.4533C31.5662 26.4533 38.092 25.2362 44.097 22.7379C44.9921 22.3375 45.7569 23.3144 44.8782 23.955Z" fill="white"/>
<path fill-rule="evenodd" clip-rule="evenodd" d="M47.1055 21.4564C46.4219 20.5916 42.5813 21.0401 40.84 21.2483C40.3192 21.3123 40.2379 20.8639 40.7098 20.5275C43.7693 18.4136 48.7979 19.0222 49.3838 19.7268C49.9696 20.4475 49.221 25.3961 46.3568 27.7663C45.9175 28.1347 45.4943 27.9425 45.6896 27.4621C46.3405 25.8766 47.789 22.3052 47.1055 21.4564Z" fill="white"/>
</g>
</g>
</g>
<defs>
<clipPath id="clip0_4099_297">
<rect width="50.64" height="30.56" fill="white" transform="translate(0 0.454956)"/>
</clipPath>
<clipPath id="clip1_4099_297">
<rect width="50.615" height="30.56" fill="white" transform="translate(0.0117188 0.454956)"/>
</clipPath>
</defs>
</svg>
