<svg width="42" height="42" viewBox="0 0 42 42" fill="none" xmlns="http://www.w3.org/2000/svg">
<path d="M0.96171 6.21172C0.961715 6.21172 0.96172 6.21171 0.961725 6.21171C1.4409 5.73258 1.99169 5.5 2.625 5.5H9.59136H9.84136V5.25V0.25H32.1586V5.25V5.5H32.4086H39.375C40.0083 5.5 40.5591 5.73259 41.0383 6.21172C41.5174 6.69089 41.75 7.24168 41.75 7.875V10.5C41.75 13.1862 40.7982 15.4741 38.8881 17.3776C36.9713 19.2878 34.6567 20.4015 31.9352 20.7215L31.7706 20.7408L31.7243 20.9C31.0846 23.103 29.9165 24.9454 28.2181 26.433C26.5181 27.9219 24.5366 28.869 22.2684 29.2751L22.0625 29.3119V29.5211V39.375V39.625H22.3125H30.2404V41.75H11.7596V39.625H19.6875H19.9375V39.375V29.5211V29.3119L19.7316 29.2751C17.4634 28.869 15.4819 27.9219 13.7819 26.433C12.0835 24.9454 10.9154 23.103 10.2757 20.9L10.2294 20.7408L10.0648 20.7215C7.34328 20.4015 5.02866 19.2878 3.11195 17.3776L2.93547 17.5547M0.96171 6.21172L0.78494 6.03494C0.261647 6.55828 0 7.17163 0 7.875V10.5C0 13.2529 0.978491 15.6044 2.93547 17.5547M0.96171 6.21172C0.482584 6.6909 0.25 7.24169 0.25 7.875V10.5C0.25 13.1862 1.20184 15.4741 3.11194 17.3776L2.93547 17.5547M0.96171 6.21172L2.93547 17.5547M9.56222 18.4012L9.84136 18.4339V18.1529V7.875V7.625H9.59136H2.625H2.375V7.875V10.5C2.375 12.5607 3.06422 14.339 4.44079 15.8217L4.624 15.6516L4.4408 15.8217C5.8147 17.3014 7.52546 18.1622 9.56222 18.4012ZM29.9327 2.625V2.375H29.6827H12.3173H12.0673V2.625V18.2741C12.0673 20.7621 12.934 22.8789 14.6646 24.6095C16.3951 26.34 18.512 27.2067 21 27.2067C23.488 27.2067 25.6049 26.34 27.3354 24.6095C29.066 22.8789 29.9327 20.7621 29.9327 18.2741V2.625ZM32.1586 18.1529V18.4339L32.4378 18.4012C34.4745 18.1622 36.1853 17.3014 37.5592 15.8217L37.376 15.6516L37.5592 15.8217C38.9358 14.339 39.625 12.5607 39.625 10.5V7.875V7.625H39.375H32.4086H32.1586V7.875V18.1529Z" fill="#4ADE80" stroke="black" stroke-width="0.5"/>
</svg>
