<svg width="67" height="25" viewBox="0 0 67 25" fill="none" xmlns="http://www.w3.org/2000/svg">
<path d="M23.9931 23.6485V21.1284H26.8221V18.6082H29.651V11.0476H38.138V18.6082H40.9669V21.1284H43.7959V23.6485H57.9408V21.1284H60.7697V18.6082H63.5987V16.088H66.4277V11.0476H1.36133V16.088H4.1903V18.6082H7.01927V21.1284H9.84824V23.6485H23.9931Z" stroke="#B0825A" stroke-miterlimit="10" stroke-linecap="round" stroke-linejoin="round"/>
<path d="M45.2108 13.5677H42.3818V16.0879H45.2108V13.5677Z" fill="#B0825A"/>
<path d="M48.0399 16.0879H45.2109V18.6081H48.0399V16.0879Z" fill="#B0825A"/>
<path d="M50.868 18.6082H48.0391V21.1283H50.868V18.6082Z" fill="#B0825A"/>
<path d="M11.2626 13.5677H8.43359V16.0879H11.2626V13.5677Z" fill="#B0825A"/>
<path d="M14.0917 16.0879H11.2627V18.6081H14.0917V16.0879Z" fill="#B0825A"/>
<path d="M16.9208 18.6082H14.0918V21.1283H16.9208V18.6082Z" fill="#B0825A"/>
<path d="M1.36133 11.0476L23.9931 0.966797H29.651V3.48699" stroke="#B0825A" stroke-miterlimit="10" stroke-linecap="round" stroke-linejoin="round"/>
<path d="M66.4274 11.0476L43.7956 0.966797H38.1377V3.48699" stroke="#B0825A" stroke-miterlimit="10" stroke-linecap="round" stroke-linejoin="round"/>
</svg>
