<svg width="49" height="35" viewBox="0 0 49 35" fill="none" xmlns="http://www.w3.org/2000/svg">
<mask id="path-1-inside-1_2168_22" fill="white">
<path d="M7.64253 34.56C5.6133 34.56 3.89654 33.8526 2.49225 32.4377C1.088 31.0228 0.377038 29.2857 0.359375 27.2264C0.359375 26.9226 0.371131 26.6274 0.394644 26.3409C0.418195 26.0544 0.468202 25.7531 0.544666 25.437L5.36187 6.08342C5.83071 4.27348 6.78512 2.8071 8.22512 1.68428C9.66512 0.561429 11.3061 0 13.1479 0H35.5135C37.3554 0 38.9963 0.561429 40.4363 1.68428C41.8763 2.8071 42.8307 4.27348 43.2995 6.08342L48.1167 25.437C48.1932 25.7531 48.2528 26.064 48.2954 26.3697C48.3381 26.6754 48.3594 26.9802 48.3594 27.284C48.3594 29.3433 47.6455 31.0708 46.2177 32.4665C44.7899 33.8622 43.0579 34.56 41.0219 34.56C39.62 34.56 38.3338 34.1893 37.1633 33.4479C35.9929 32.7065 35.0929 31.7095 34.4636 30.4571L32.8137 27.072C32.5343 26.496 32.1153 26.064 31.5565 25.776C30.9978 25.488 30.4052 25.344 29.7787 25.344H18.8827C18.2639 25.344 17.6732 25.4843 17.1106 25.7649C16.548 26.0455 16.1271 26.4812 15.8477 27.072L14.1978 30.4571C13.5979 31.7391 12.7026 32.7434 11.512 33.47C10.3214 34.1967 9.03157 34.56 7.64253 34.56ZM7.8265 32.256C8.75083 32.256 9.60487 32.0049 10.3886 31.5028C11.1724 31.0006 11.7613 30.3345 12.1553 29.5045L13.7611 26.177C14.2439 25.1947 14.9521 24.4263 15.8856 23.8717C16.819 23.3172 17.8181 23.04 18.8827 23.04H29.7787C30.8612 23.04 31.8641 23.3339 32.7875 23.9217C33.7108 24.5095 34.4342 25.276 34.9577 26.2213L36.5634 29.5045C36.9575 30.3345 37.5464 31.0006 38.3301 31.5028C39.1139 32.0049 39.9782 32.256 40.9229 32.256C42.3152 32.256 43.5086 31.7826 44.5031 30.8359C45.4976 29.8892 45.9993 28.7306 46.0081 27.36C46.0081 27.2802 45.9552 26.8268 45.8493 25.9998L41.0321 6.70378C40.7057 5.43066 40.0307 4.37908 39.0073 3.54902C37.9839 2.71901 36.8193 2.304 35.5135 2.304H13.1479C11.8107 2.304 10.6286 2.71901 9.60181 3.54902C8.57502 4.37908 7.91751 5.43066 7.62928 6.70378L2.81208 25.9998C2.76505 26.1711 2.71212 26.6053 2.65328 27.3024C2.65328 28.7034 3.1628 29.8793 4.18183 30.8299C5.20086 31.7806 6.41575 32.256 7.8265 32.256ZM27.7716 14.4443C28.2451 14.4443 28.6575 14.2678 29.009 13.9148C29.3604 13.5619 29.5361 13.1476 29.5361 12.672C29.5361 12.1964 29.3604 11.7821 29.009 11.4292C28.6575 11.0762 28.2451 10.8997 27.7716 10.8997C27.2981 10.8997 26.8856 11.0762 26.5342 11.4292C26.1827 11.7821 26.007 12.1964 26.007 12.672C26.007 13.1476 26.1827 13.5619 26.5342 13.9148C26.8856 14.2678 27.2981 14.4443 27.7716 14.4443ZM32.3594 9.83629C32.8329 9.83629 33.2453 9.65981 33.5968 9.30684C33.9482 8.95386 34.1239 8.53958 34.1239 8.064C34.1239 7.58842 33.9482 7.17413 33.5968 6.82116C33.2453 6.46819 32.8329 6.29171 32.3594 6.29171C31.8859 6.29171 31.4734 6.46819 31.122 6.82116C30.7706 7.17413 30.5948 7.58842 30.5948 8.064C30.5948 8.53958 30.7706 8.95386 31.122 9.30684C31.4734 9.65981 31.8859 9.83629 32.3594 9.83629ZM32.3594 19.0523C32.8329 19.0523 33.2453 18.8758 33.5968 18.5228C33.9482 18.1699 34.1239 17.7556 34.1239 17.28C34.1239 16.8044 33.9482 16.3901 33.5968 16.0372C33.2453 15.6842 32.8329 15.5077 32.3594 15.5077C31.8859 15.5077 31.4734 15.6842 31.122 16.0372C30.7706 16.3901 30.5948 16.8044 30.5948 17.28C30.5948 17.7556 30.7706 18.1699 31.122 18.5228C31.4734 18.8758 31.8859 19.0523 32.3594 19.0523ZM36.9472 14.4443C37.4207 14.4443 37.8332 14.2678 38.1846 13.9148C38.536 13.5619 38.7117 13.1476 38.7117 12.672C38.7117 12.1964 38.536 11.7821 38.1846 11.4292C37.8332 11.0762 37.4207 10.8997 36.9472 10.8997C36.4737 10.8997 36.0612 11.0762 35.7098 11.4292C35.3584 11.7821 35.1827 12.1964 35.1827 12.672C35.1827 13.1476 35.3584 13.5619 35.7098 13.9148C36.0612 14.2678 36.4737 14.4443 36.9472 14.4443ZM16.3 17.7231C16.5925 17.7231 16.8351 17.6268 17.0277 17.4344C17.2203 17.2419 17.3166 16.9984 17.3166 16.704V13.6911H20.3164C20.6095 13.6911 20.8519 13.595 21.0435 13.4029C21.2352 13.2108 21.331 12.9679 21.331 12.6741C21.331 12.3803 21.2352 12.1366 21.0435 11.9431C20.8519 11.7497 20.6095 11.6529 20.3164 11.6529H17.3166V8.64C17.3166 8.34559 17.221 8.10213 17.0298 7.90963C16.8385 7.71717 16.5966 7.62094 16.3041 7.62094C16.0116 7.62094 15.769 7.71717 15.5764 7.90963C15.3837 8.10213 15.2874 8.34559 15.2874 8.64V11.6529H12.2877C11.9946 11.6529 11.7522 11.749 11.5605 11.9411C11.3689 12.1332 11.2731 12.3761 11.2731 12.6699C11.2731 12.9637 11.3689 13.2074 11.5605 13.4009C11.7522 13.5943 11.9946 13.6911 12.2877 13.6911H15.2874V16.704C15.2874 16.9984 15.3831 17.2419 15.5743 17.4344C15.7656 17.6268 16.0075 17.7231 16.3 17.7231Z"/>
</mask>
<path d="M7.64253 34.56C5.6133 34.56 3.89654 33.8526 2.49225 32.4377C1.088 31.0228 0.377038 29.2857 0.359375 27.2264C0.359375 26.9226 0.371131 26.6274 0.394644 26.3409C0.418195 26.0544 0.468202 25.7531 0.544666 25.437L5.36187 6.08342C5.83071 4.27348 6.78512 2.8071 8.22512 1.68428C9.66512 0.561429 11.3061 0 13.1479 0H35.5135C37.3554 0 38.9963 0.561429 40.4363 1.68428C41.8763 2.8071 42.8307 4.27348 43.2995 6.08342L48.1167 25.437C48.1932 25.7531 48.2528 26.064 48.2954 26.3697C48.3381 26.6754 48.3594 26.9802 48.3594 27.284C48.3594 29.3433 47.6455 31.0708 46.2177 32.4665C44.7899 33.8622 43.0579 34.56 41.0219 34.56C39.62 34.56 38.3338 34.1893 37.1633 33.4479C35.9929 32.7065 35.0929 31.7095 34.4636 30.4571L32.8137 27.072C32.5343 26.496 32.1153 26.064 31.5565 25.776C30.9978 25.488 30.4052 25.344 29.7787 25.344H18.8827C18.2639 25.344 17.6732 25.4843 17.1106 25.7649C16.548 26.0455 16.1271 26.4812 15.8477 27.072L14.1978 30.4571C13.5979 31.7391 12.7026 32.7434 11.512 33.47C10.3214 34.1967 9.03157 34.56 7.64253 34.56ZM7.8265 32.256C8.75083 32.256 9.60487 32.0049 10.3886 31.5028C11.1724 31.0006 11.7613 30.3345 12.1553 29.5045L13.7611 26.177C14.2439 25.1947 14.9521 24.4263 15.8856 23.8717C16.819 23.3172 17.8181 23.04 18.8827 23.04H29.7787C30.8612 23.04 31.8641 23.3339 32.7875 23.9217C33.7108 24.5095 34.4342 25.276 34.9577 26.2213L36.5634 29.5045C36.9575 30.3345 37.5464 31.0006 38.3301 31.5028C39.1139 32.0049 39.9782 32.256 40.9229 32.256C42.3152 32.256 43.5086 31.7826 44.5031 30.8359C45.4976 29.8892 45.9993 28.7306 46.0081 27.36C46.0081 27.2802 45.9552 26.8268 45.8493 25.9998L41.0321 6.70378C40.7057 5.43066 40.0307 4.37908 39.0073 3.54902C37.9839 2.71901 36.8193 2.304 35.5135 2.304H13.1479C11.8107 2.304 10.6286 2.71901 9.60181 3.54902C8.57502 4.37908 7.91751 5.43066 7.62928 6.70378L2.81208 25.9998C2.76505 26.1711 2.71212 26.6053 2.65328 27.3024C2.65328 28.7034 3.1628 29.8793 4.18183 30.8299C5.20086 31.7806 6.41575 32.256 7.8265 32.256ZM27.7716 14.4443C28.2451 14.4443 28.6575 14.2678 29.009 13.9148C29.3604 13.5619 29.5361 13.1476 29.5361 12.672C29.5361 12.1964 29.3604 11.7821 29.009 11.4292C28.6575 11.0762 28.2451 10.8997 27.7716 10.8997C27.2981 10.8997 26.8856 11.0762 26.5342 11.4292C26.1827 11.7821 26.007 12.1964 26.007 12.672C26.007 13.1476 26.1827 13.5619 26.5342 13.9148C26.8856 14.2678 27.2981 14.4443 27.7716 14.4443ZM32.3594 9.83629C32.8329 9.83629 33.2453 9.65981 33.5968 9.30684C33.9482 8.95386 34.1239 8.53958 34.1239 8.064C34.1239 7.58842 33.9482 7.17413 33.5968 6.82116C33.2453 6.46819 32.8329 6.29171 32.3594 6.29171C31.8859 6.29171 31.4734 6.46819 31.122 6.82116C30.7706 7.17413 30.5948 7.58842 30.5948 8.064C30.5948 8.53958 30.7706 8.95386 31.122 9.30684C31.4734 9.65981 31.8859 9.83629 32.3594 9.83629ZM32.3594 19.0523C32.8329 19.0523 33.2453 18.8758 33.5968 18.5228C33.9482 18.1699 34.1239 17.7556 34.1239 17.28C34.1239 16.8044 33.9482 16.3901 33.5968 16.0372C33.2453 15.6842 32.8329 15.5077 32.3594 15.5077C31.8859 15.5077 31.4734 15.6842 31.122 16.0372C30.7706 16.3901 30.5948 16.8044 30.5948 17.28C30.5948 17.7556 30.7706 18.1699 31.122 18.5228C31.4734 18.8758 31.8859 19.0523 32.3594 19.0523ZM36.9472 14.4443C37.4207 14.4443 37.8332 14.2678 38.1846 13.9148C38.536 13.5619 38.7117 13.1476 38.7117 12.672C38.7117 12.1964 38.536 11.7821 38.1846 11.4292C37.8332 11.0762 37.4207 10.8997 36.9472 10.8997C36.4737 10.8997 36.0612 11.0762 35.7098 11.4292C35.3584 11.7821 35.1827 12.1964 35.1827 12.672C35.1827 13.1476 35.3584 13.5619 35.7098 13.9148C36.0612 14.2678 36.4737 14.4443 36.9472 14.4443ZM16.3 17.7231C16.5925 17.7231 16.8351 17.6268 17.0277 17.4344C17.2203 17.2419 17.3166 16.9984 17.3166 16.704V13.6911H20.3164C20.6095 13.6911 20.8519 13.595 21.0435 13.4029C21.2352 13.2108 21.331 12.9679 21.331 12.6741C21.331 12.3803 21.2352 12.1366 21.0435 11.9431C20.8519 11.7497 20.6095 11.6529 20.3164 11.6529H17.3166V8.64C17.3166 8.34559 17.221 8.10213 17.0298 7.90963C16.8385 7.71717 16.5966 7.62094 16.3041 7.62094C16.0116 7.62094 15.769 7.71717 15.5764 7.90963C15.3837 8.10213 15.2874 8.34559 15.2874 8.64V11.6529H12.2877C11.9946 11.6529 11.7522 11.749 11.5605 11.9411C11.3689 12.1332 11.2731 12.3761 11.2731 12.6699C11.2731 12.9637 11.3689 13.2074 11.5605 13.4009C11.7522 13.5943 11.9946 13.6911 12.2877 13.6911H15.2874V16.704C15.2874 16.9984 15.3831 17.2419 15.5743 17.4344C15.7656 17.6268 16.0075 17.7231 16.3 17.7231Z" fill="#23F7DD" stroke="black" stroke-width="1.2" mask="url(#path-1-inside-1_2168_22)"/>
</svg>
