<svg width="59" height="54" viewBox="0 0 59 54" fill="none" xmlns="http://www.w3.org/2000/svg">
<path d="M22.7624 43.2997L22.7625 43.2996L24.382 41.8779L24.3823 41.8776C24.5155 41.7611 24.6866 41.697 24.8635 41.697H33.6244C33.8069 41.697 33.9832 41.7647 34.1189 41.8897L35.6644 43.311C35.6644 43.311 35.6645 43.311 35.6645 43.3111L35.6648 43.3113L22.7624 43.2997ZM22.7624 43.2997C22.4599 43.5654 22.4284 44.0265 22.695 44.3301C22.8401 44.4954 23.0427 44.5785 23.244 44.5785C23.4142 44.5785 23.587 44.5193 23.7256 44.3975L25.1382 43.1568H33.3394M22.7624 43.2997L33.3394 43.1568M33.3394 43.1568L34.6756 44.3855L33.3394 43.1568ZM44.5254 31.5693L43.9463 43.2111L38.1307 49.726L33.1082 45.4045L33.1079 45.4041C32.9747 45.2899 32.8059 45.2283 32.6318 45.2283H25.509C25.3116 45.2283 25.1241 45.308 24.9868 45.4476L24.9861 45.4484L20.8336 49.7081L14.7946 43.6691L14.2917 30.9481L21.0091 33.2916L21.0102 33.2919C21.2333 33.3687 21.4761 33.3344 21.6683 33.2004L21.669 33.1999L27.7706 28.9137L27.5689 33.577L27.5689 33.5774C27.5523 33.9793 27.863 34.3207 28.2664 34.3385L28.2664 34.3388H28.2775H28.2775H28.2776H28.2776H28.2777H28.2777H28.2777H28.2778H28.2778H28.2779H28.2779H28.2779H28.278H28.278H28.2781H28.2781H28.2782H28.2782H28.2782H28.2783H28.2783H28.2784H28.2784H28.2784H28.2785H28.2785H28.2786H28.2786H28.2786H28.2787H28.2787H28.2788H28.2788H28.2789H28.2789H28.2789H28.279H28.279H28.2791H28.2791H28.2791H28.2792H28.2792H28.2793H28.2793H28.2793H28.2794H28.2794H28.2795H28.2795H28.2796H28.2796H28.2796H28.2797H28.2797H28.2798H28.2798H28.2798H28.2799H28.2799H28.28H28.28H28.28H28.2801H28.2801H28.2802H28.2802H28.2803H28.2803H28.2803H28.2804H28.2804H28.2805H28.2805H28.2805H28.2806H28.2806H28.2807H28.2807H28.2807H28.2808H28.2808H28.2809H28.2809H28.281H28.281H28.281H28.2811H28.2811H28.2812H28.2812H28.2812H28.2813H28.2813H28.2814H28.2814H28.2814H28.2815H28.2815H28.2816H28.2816H28.2817H28.2817H28.2817H28.2818H28.2818H28.2819H28.2819H28.2819H28.282H28.282H28.2821H28.2821H28.2821H28.2822H28.2822H28.2823H28.2823H28.2824H28.2824H28.2824H28.2825H28.2825H28.2826H28.2826H28.2826H28.2827H28.2827H28.2828H28.2828H28.2828H28.2829H28.2829H28.283H28.283H28.2831H28.2831H28.2831H28.2832H28.2832H28.2833H28.2833H28.2833H28.2834H28.2834H28.2835H28.2835H28.2835H28.2836H28.2836H28.2837H28.2837H28.2838H28.2838H28.2838H28.2839H28.2839H28.284H28.284H28.284H28.2841H28.2841H28.2842H28.2842H28.2842H28.2843H28.2843H28.2844H28.2844H28.2845H28.2845H28.2845H28.2846H28.2846H28.2847H28.2847H28.2847H28.2848H28.2848H28.2849H28.2849H28.2849H28.285H28.285H28.2851H28.2851H28.2852H28.2852H28.2852H28.2853H28.2853H28.2854H28.2854H28.2854H28.2855H28.2855H28.2856H28.2856H28.2857H28.2857H28.2857H28.2858H28.2858H28.2859H28.2859H28.2859H28.286H28.286H28.2861H28.2861H28.2861H28.2862H28.2862H28.2863H28.2863H28.2864H28.2864H28.2864H28.2865H28.2865H28.2866H28.2866H28.2866H28.2867H28.2867H28.2868H28.2868H28.2868H28.2869H28.2869H28.287H28.287H28.2871H28.2871H28.2871H28.2872H28.2872H28.2873H28.2873H28.2873H28.2874H28.2874H28.2875H28.2875H28.2875H28.2876H28.2876H28.2877H28.2877H28.2878H28.2878H28.2878H28.2879H28.2879H28.288H28.288H28.288H28.2881H28.2881H28.2882H28.2882H28.2882H28.2883H28.2883H28.2884H28.2884H28.2885H28.2885H28.2885H28.2886H28.2886H28.2887H28.2887H28.2887H28.2888H28.2888H28.2889H28.2889H28.2889H28.289H28.289H28.2891H28.2891H28.2892H28.2892H28.2892H28.2893H28.2893H28.2894H28.2894H28.2894H28.2895H28.2895H28.2896H28.2896H28.2896H28.2897H28.2897H28.2898H28.2898H28.2899H28.2899H28.2899H28.29H28.29H28.2901H28.2901H28.2901H28.2902H28.2902H28.2903H28.2903H28.2903H28.2904H28.2904H28.2905H28.2905H28.2906H28.2906H28.2906H28.2907H28.2907H28.2908H28.2908H28.2908H28.2909H28.2909H28.291H28.291H28.291H28.2911H28.2911H28.2912H28.2912H28.2913H28.2913H28.2913H28.2914H28.2914H28.2915H28.2915H28.2915H28.2916H28.2916H28.2917H28.2917H28.2918H28.2918H28.2918H28.2919H28.2919H28.292H28.292H28.292H28.2921H28.2921H28.2922H28.2922H28.2922H28.2923H28.2923H28.2924H28.2924H28.2925H28.2925H28.2925H28.2926H28.2926H28.2927H28.2927H28.2927H28.2928H28.2928H28.2929H28.2929H28.2929H28.293H28.293H28.2931H28.2931H28.2932H28.2932H28.2932H28.2933H28.2933H28.2934H28.2934H28.2934H28.2935H28.2935H28.2936H28.2936H28.2936H28.2937H28.2937H28.2938H28.2938H28.2939H28.2939H28.2939H28.294H28.294H28.2941H28.2941H28.2941H28.2942H28.2942H28.2943H28.2943H28.2943H28.2944H28.2944H28.2945H28.2945H28.2946H28.2946H28.2946H28.2947H28.2947H28.2948H28.2948H28.2948H28.2949H28.2949H28.295H28.295H28.295H28.2951H28.2951H28.2952H28.2952H28.2953H28.2953H28.2953H28.2954H28.2954H28.2955H28.2955H28.2955H28.2956H28.2956H28.2957H28.2957H28.2957H28.2958H28.2958H28.2959H28.2959H28.296H28.296H28.296H28.2961H28.2961H28.2962H28.2962H28.2962H28.2963H28.2963H28.2964H28.2964H28.2964H28.2965H28.2965H28.2966H28.2966H28.2967H28.2967H28.2967H28.2968H28.2968H28.2969H28.2969H28.2969H28.297H28.297H28.2971H28.2971H28.2971H28.2972H28.2972H28.2973H28.2973H28.2974H28.2974H28.2974H28.2975H28.2975H28.2976H28.2976H28.2976H28.2977H28.2977H28.2978H28.2978H28.2978H28.2979H28.2979H28.298H28.298H28.2981H28.2981H28.2981H28.2982H28.2982H28.2983H28.2983H28.2983H28.2984H28.2984H28.2985H28.2985H28.2985H28.2986C28.6874 34.3388 29.0115 34.0338 29.0282 33.6408C29.0282 33.6407 29.0283 33.6407 29.0283 33.6407C29.0283 33.6406 29.0283 33.6406 29.0283 33.6406L29.2785 27.8544L29.3404 27.8109L36.7328 33.5842C36.7331 33.5844 36.7335 33.5847 36.7338 33.5849C36.9191 33.7317 37.1682 33.7801 37.3957 33.7087L44.5254 31.5693ZM31.8885 36.2032L31.8882 36.2032L29.3763 36.7022L26.8863 36.0339C26.886 36.0338 26.8857 36.0337 26.8854 36.0337C26.4913 35.9255 26.0936 36.1628 25.9905 36.5495C25.8861 36.9384 26.1168 37.3388 26.5064 37.4433C26.5064 37.4433 26.5064 37.4433 26.5065 37.4434L29.1622 38.1569C29.224 38.1735 29.2873 38.1819 29.3514 38.1819C29.3993 38.1819 29.4451 38.1771 29.4883 38.1696L29.4883 38.1696L29.4939 38.1685L32.1731 37.6363C32.1732 37.6363 32.1732 37.6363 32.1732 37.6363C32.5694 37.5577 32.8256 37.1725 32.7473 36.7773L32.7472 36.7772C32.6688 36.3824 32.2849 36.1248 31.8885 36.2032Z" stroke="#23F7DD" stroke-width="0.5"/>
<path d="M20.8487 50.9769L20.8487 50.9768H20.8425C20.7808 50.9768 20.7231 50.9528 20.6809 50.9101L20.6801 50.9094L13.9161 44.1454L13.9153 44.1446C13.8745 44.1042 13.8507 44.0502 13.8485 43.9921L13.8485 43.9918L13.2912 29.9145C13.2912 29.9145 13.2912 29.9144 13.2912 29.9144C13.2882 29.8388 13.3227 29.7663 13.3833 29.7209C13.4463 29.6755 13.5247 29.6638 13.5977 29.6886C13.5979 29.6887 13.5981 29.6887 13.5983 29.6888L21.0947 32.3035L21.2158 32.3458L21.3208 32.272L29.2329 26.7141L29.2334 26.7138C29.3155 26.6558 29.4263 26.6584 29.5063 26.7211L29.5067 26.7214L37.132 32.6757L37.2339 32.7552L37.3577 32.7181L45.2417 30.3522L45.2436 30.3516C45.3118 30.3305 45.3893 30.3441 45.451 30.3914C45.5094 30.4375 45.5421 30.5093 45.5384 30.584L45.5384 30.5841L44.8951 43.5164C44.8951 43.5164 44.8951 43.5164 44.8951 43.5164C44.8925 43.5682 44.8722 43.6178 44.8366 43.6576L44.8364 43.6578L38.3718 50.9001L38.3715 50.9004C38.3266 50.9509 38.2644 50.9768 38.2003 50.9768C38.1468 50.9768 38.0933 50.9585 38.0495 50.9212C38.0494 50.9212 38.0493 50.9211 38.0492 50.921L32.6186 46.2485L32.5483 46.188H32.4555H25.7134H25.608L25.5344 46.2635L21.0074 50.9077L21.0067 50.9085C20.9753 50.941 20.9538 50.9554 20.9365 50.9633C20.9207 50.9705 20.8955 50.9781 20.8487 50.9769Z" stroke="#23F7DD" stroke-width="0.5"/>
<path d="M13.5205 13.3715C13.4934 13.3715 13.465 13.3665 13.4362 13.3553L18.9103 6.55723C18.8637 6.58896 15.428 8.93226 13.7351 13.2247C13.6987 13.3162 13.612 13.3715 13.5205 13.3715Z" stroke="#23F7DD" stroke-width="0.5"/>
<path d="M22.8156 3.97928L22.8156 3.97932L22.82 3.97843C22.9381 3.95438 23.0598 4.03393 23.0839 4.16364C23.1071 4.28844 23.0246 4.40855 22.8994 4.43185C22.5788 4.4914 22.1003 4.67969 21.6676 4.86947C21.2279 5.06231 20.8074 5.26942 20.589 5.38278C20.5517 5.40143 20.5155 5.40932 20.4823 5.40932C20.3981 5.40932 20.3182 5.36391 20.2767 5.28469C20.2183 5.17106 20.263 5.03212 20.3754 4.97385L20.2604 4.75189L20.375 4.97405C20.4588 4.93081 20.8767 4.71656 21.3741 4.49474C21.8787 4.2697 22.4386 4.04907 22.8156 3.97928Z" stroke="#23F7DD" stroke-width="0.5"/>
<path d="M44.3131 20.4054L44.313 20.4056C42.7911 24.6744 40.8587 26.8996 38.6361 27.2433C38.4273 27.275 38.2219 27.2904 38.0198 27.2904C36.6198 27.2904 35.3494 26.5723 34.3998 25.8113C33.4563 25.0551 32.8606 24.2815 32.8117 24.2174C32.7677 24.1591 32.7541 24.0819 32.7758 24.0117L32.7759 24.0113C32.7978 23.9398 32.8524 23.884 32.9215 23.8607L32.9217 23.8606L44.022 20.1105L44.022 20.1105L44.0242 20.1098C44.1055 20.0814 44.1969 20.1027 44.2599 20.1668C44.3221 20.2302 44.3424 20.3234 44.3131 20.4054Z" stroke="#23F7DD" stroke-width="0.5"/>
<path d="M14.1168 20.406L14.1167 20.4058C14.0875 20.324 14.1076 20.2311 14.1694 20.1678C14.232 20.1052 14.3253 20.0832 14.408 20.111C14.408 20.111 14.4081 20.111 14.4081 20.111L25.5081 23.861L25.5083 23.8611C25.5774 23.8844 25.632 23.9402 25.6539 24.0117L25.654 24.0121C25.6757 24.0823 25.6622 24.1594 25.6181 24.2177C25.5695 24.2814 24.9736 25.0553 24.0297 25.8117C23.08 26.5727 21.8096 27.2908 20.41 27.2908C20.208 27.2908 20.0026 27.2754 19.7938 27.2437C17.5712 26.9001 15.6388 24.6748 14.1168 20.406Z" stroke="#23F7DD" stroke-width="0.5"/>
<path d="M22.8156 3.97928L22.8156 3.97932L22.82 3.97843C22.9381 3.95438 23.0598 4.03393 23.0839 4.16364C23.1071 4.28844 23.0246 4.40855 22.8994 4.43185C22.5788 4.4914 22.1003 4.67969 21.6676 4.86947C21.2279 5.06231 20.8074 5.26942 20.589 5.38278C20.5517 5.40143 20.5155 5.40932 20.4823 5.40932C20.3981 5.40932 20.3182 5.36391 20.2767 5.28469C20.2183 5.17106 20.263 5.03212 20.3754 4.97385L20.2604 4.75189L20.375 4.97405C20.4588 4.93081 20.8767 4.71656 21.3741 4.49474C21.8787 4.2697 22.4386 4.04907 22.8156 3.97928Z" stroke="#23F7DD" stroke-width="0.5"/>
<path d="M13.5205 13.3715C13.4934 13.3715 13.465 13.3665 13.4362 13.3553L18.9103 6.55723C18.8637 6.58896 15.428 8.93226 13.7351 13.2247C13.6987 13.3162 13.612 13.3715 13.5205 13.3715Z" stroke="#23F7DD" stroke-width="0.5"/>
<path d="M45.2417 30.3522L45.2436 30.3516C45.3119 30.3305 45.3893 30.3441 45.451 30.3914C45.5094 30.4376 45.5421 30.5093 45.5384 30.5841L45.5384 30.5841L44.8951 43.5164C44.8951 43.5164 44.8951 43.5165 44.8951 43.5165C44.8925 43.5682 44.8722 43.6178 44.8366 43.6576L44.8364 43.6579L38.3718 50.9002L38.3715 50.9005C38.3266 50.9509 38.2644 50.9769 38.2003 50.9769C38.1468 50.9769 38.0933 50.9585 38.0495 50.9213C38.0494 50.9212 38.0493 50.9211 38.0492 50.921L32.6186 46.2485L32.5483 46.188H32.4555H25.7134H25.608L25.5344 46.2635L21.0074 50.9078L21.0067 50.9085C20.9753 50.941 20.9538 50.9555 20.9365 50.9633C20.9207 50.9705 20.8955 50.9781 20.8487 50.9769L20.8487 50.9769H20.8425C20.7808 50.9769 20.7231 50.9528 20.6809 50.9102L20.6801 50.9094L13.9161 44.1454L13.9153 44.1446C13.8745 44.1042 13.8507 44.0502 13.8485 43.9921L13.8485 43.9919L13.2912 29.9145C13.2912 29.9145 13.2912 29.9145 13.2912 29.9144C13.2882 29.8388 13.3227 29.7664 13.3833 29.7209C13.4463 29.6756 13.5247 29.6639 13.5977 29.6886C13.5979 29.6887 13.5981 29.6887 13.5983 29.6888L21.0947 32.3035L21.2158 32.3458L21.3208 32.2721L29.2329 26.7141L29.2334 26.7138C29.3155 26.6558 29.4263 26.6584 29.5063 26.7211L29.5067 26.7214L37.132 32.6757L37.2339 32.7552L37.3577 32.7181L45.2417 30.3522Z" stroke="#23F7DD" stroke-width="0.5"/>
<path d="M14.1168 20.406L14.1167 20.4058C14.0875 20.324 14.1076 20.2311 14.1694 20.1678C14.232 20.1052 14.3253 20.0832 14.408 20.111C14.408 20.111 14.4081 20.111 14.4081 20.111L25.5081 23.861L25.5083 23.8611C25.5774 23.8844 25.632 23.9402 25.6539 24.0117L25.654 24.0121C25.6757 24.0823 25.6622 24.1594 25.6181 24.2177C25.5695 24.2814 24.9736 25.0553 24.0297 25.8117C23.08 26.5727 21.8096 27.2908 20.41 27.2908C20.208 27.2908 20.0026 27.2754 19.7938 27.2437C17.5712 26.9001 15.6388 24.6748 14.1168 20.406Z" stroke="#23F7DD" stroke-width="0.5"/>
<path d="M44.3131 20.4054L44.313 20.4056C42.7911 24.6744 40.8587 26.8996 38.6361 27.2433C38.4273 27.275 38.2219 27.2904 38.0198 27.2904C36.6198 27.2904 35.3494 26.5723 34.3998 25.8113C33.4563 25.0551 32.8606 24.2815 32.8117 24.2174C32.7677 24.1591 32.7541 24.0819 32.7758 24.0117L32.7759 24.0113C32.7978 23.9398 32.8524 23.884 32.9215 23.8607L32.9217 23.8606L44.022 20.1105L44.022 20.1105L44.0242 20.1098C44.1055 20.0814 44.1969 20.1027 44.2599 20.1668C44.3221 20.2302 44.3424 20.3234 44.3131 20.4054Z" stroke="#23F7DD" stroke-width="0.5"/>
<path d="M58.5111 15.0781L53.4215 22.6707C53.3755 22.4967 53.3148 22.294 53.2362 22.0768C53.0194 21.4778 52.6574 20.7435 52.0684 20.2059L53.3148 17.577L53.518 17.1484L53.0495 17.223L51.3761 17.4896L51.3761 17.4895L51.374 17.4899C51.2897 17.5041 51.2047 17.4688 51.1531 17.3965L51.1525 17.3958C51.1017 17.3251 51.0954 17.2314 51.1356 17.155C51.829 15.8398 53.0922 13.3905 54.2224 11.072C54.7874 9.91288 55.3202 8.78457 55.7322 7.84622C56.14 6.91747 56.4411 6.14948 56.5275 5.72462L56.5275 5.7244C56.5526 5.60036 56.6772 5.52186 56.7859 5.54223L56.7859 5.54228L56.7911 5.54314C56.9126 5.56326 56.9973 5.67709 56.9811 5.80018L56.9811 5.80027L55.8978 14.0868L55.8663 14.3281L56.1066 14.3661L58.3558 14.7225C58.4336 14.7349 58.4996 14.786 58.5311 14.858C58.5625 14.9297 58.555 15.0128 58.5113 15.0778L58.5111 15.0781Z" stroke="#23F7DD" stroke-width="0.5"/>
<mask id="path-13-inside-1_8_64" fill="white">
<path d="M49.5159 18.5199L47.855 30.6886L47.5596 32.1135L47.6686 32.0862L49.5245 18.5259L49.5159 18.5199Z"/>
</mask>
<path d="M49.5159 18.5199L49.8037 18.111L49.1316 17.638L49.0205 18.4523L49.5159 18.5199ZM47.855 30.6886L48.3446 30.7901L48.3481 30.7733L48.3504 30.7562L47.855 30.6886ZM47.5596 32.1135L47.07 32.012L46.9083 32.7917L47.6808 32.5986L47.5596 32.1135ZM47.6686 32.0862L47.7899 32.5713L48.1181 32.4892L48.164 32.154L47.6686 32.0862ZM49.5245 18.5259L50.0199 18.5937L50.0612 18.2922L49.8123 18.1171L49.5245 18.5259ZM49.0205 18.4523L47.3596 30.621L48.3504 30.7562L50.0113 18.5875L49.0205 18.4523ZM47.3654 30.5871L47.07 32.012L48.0492 32.215L48.3446 30.7901L47.3654 30.5871ZM47.6808 32.5986L47.7899 32.5713L47.5473 31.6012L47.4383 31.6284L47.6808 32.5986ZM48.164 32.154L50.0199 18.5937L49.0291 18.4581L47.1732 32.0184L48.164 32.154ZM49.8123 18.1171L49.8037 18.111L49.2281 18.9288L49.2367 18.9348L49.8123 18.1171Z" fill="#23F7DD" mask="url(#path-13-inside-1_8_64)"/>
<path d="M52.0887 26.3794C51.8873 28.1891 50.7604 29.7147 49.1125 30.4402L49.2115 29.7154L49.2115 29.7154L50.3472 21.3972L50.4418 20.7043C50.707 20.9644 51.0729 21.3778 51.407 21.9128C51.9267 22.7451 52.3556 23.8488 52.23 25.1075L52.0887 26.3793C52.0887 26.3793 52.0887 26.3793 52.0887 26.3794Z" stroke="#23F7DD" stroke-width="0.5"/>
<path d="M13.5205 13.3715C13.4934 13.3715 13.465 13.3665 13.4362 13.3553L18.9103 6.55723C18.8637 6.58896 15.428 8.93226 13.7351 13.2247C13.6987 13.3162 13.612 13.3715 13.5205 13.3715Z" stroke="#23F7DD" stroke-width="0.5"/>
<path d="M22.8156 3.97928L22.8156 3.97932L22.82 3.97843C22.9381 3.95438 23.0598 4.03393 23.0839 4.16364C23.1071 4.28844 23.0246 4.40855 22.8994 4.43185C22.5788 4.4914 22.1003 4.67969 21.6676 4.86947C21.2279 5.06231 20.8074 5.26942 20.589 5.38278C20.5517 5.40143 20.5155 5.40932 20.4823 5.40932C20.3981 5.40932 20.3182 5.36391 20.2767 5.28469C20.2183 5.17106 20.263 5.03212 20.3754 4.97385L20.2604 4.75189L20.375 4.97405C20.4588 4.93081 20.8767 4.71656 21.3741 4.49474C21.8787 4.2697 22.4386 4.04907 22.8156 3.97928Z" stroke="#23F7DD" stroke-width="0.5"/>
<path d="M14.1168 20.406L14.1167 20.4058C14.0875 20.324 14.1076 20.2311 14.1694 20.1678C14.232 20.1052 14.3253 20.0832 14.408 20.111C14.408 20.111 14.4081 20.111 14.4081 20.111L25.5081 23.861L25.5083 23.8611C25.5774 23.8844 25.632 23.9402 25.6539 24.0117L25.654 24.0121C25.6757 24.0823 25.6622 24.1594 25.6181 24.2177C25.5695 24.2814 24.9736 25.0553 24.0297 25.8117C23.08 26.5727 21.8096 27.2908 20.41 27.2908C20.208 27.2908 20.0026 27.2754 19.7938 27.2437C17.5712 26.9001 15.6388 24.6748 14.1168 20.406Z" stroke="#23F7DD" stroke-width="0.5"/>
<path d="M45.2417 30.3522L45.2436 30.3516C45.3119 30.3305 45.3893 30.3441 45.451 30.3914C45.5094 30.4376 45.5421 30.5093 45.5384 30.5841L45.5384 30.5841L44.8951 43.5164C44.8951 43.5164 44.8951 43.5165 44.8951 43.5165C44.8925 43.5682 44.8722 43.6178 44.8366 43.6576L44.8364 43.6579L38.3718 50.9002L38.3715 50.9005C38.3266 50.9509 38.2644 50.9769 38.2003 50.9769C38.1468 50.9769 38.0933 50.9585 38.0495 50.9213C38.0494 50.9212 38.0493 50.9211 38.0492 50.921L32.6186 46.2485L32.5483 46.188H32.4555H25.7134H25.608L25.5344 46.2635L21.0074 50.9078L21.0067 50.9085C20.9753 50.941 20.9538 50.9555 20.9365 50.9633C20.9207 50.9705 20.8955 50.9781 20.8487 50.9769L20.8487 50.9769H20.8425C20.7808 50.9769 20.7231 50.9528 20.6809 50.9102L20.6801 50.9094L13.9161 44.1454L13.9153 44.1446C13.8745 44.1042 13.8507 44.0502 13.8485 43.9921L13.8485 43.9919L13.2912 29.9145C13.2912 29.9145 13.2912 29.9145 13.2912 29.9144C13.2882 29.8388 13.3227 29.7664 13.3833 29.7209C13.4463 29.6756 13.5247 29.6639 13.5977 29.6886C13.5979 29.6887 13.5981 29.6887 13.5983 29.6888L21.0947 32.3035L21.2158 32.3458L21.3208 32.2721L29.2329 26.7141L29.2334 26.7138C29.3155 26.6558 29.4263 26.6584 29.5063 26.7211L29.5067 26.7214L37.132 32.6757L37.2339 32.7552L37.3577 32.7181L45.2417 30.3522Z" stroke="#23F7DD" stroke-width="0.5"/>
<path d="M44.3131 20.4054L44.313 20.4056C42.7911 24.6744 40.8587 26.8996 38.6361 27.2433C38.4273 27.275 38.2219 27.2904 38.0198 27.2904C36.6198 27.2904 35.3494 26.5723 34.3998 25.8113C33.4563 25.0551 32.8606 24.2815 32.8117 24.2174C32.7677 24.1591 32.7541 24.0819 32.7758 24.0117L32.7759 24.0113C32.7978 23.9398 32.8524 23.884 32.9215 23.8607L32.9217 23.8606L44.022 20.1105L44.022 20.1105L44.0242 20.1098C44.1055 20.0814 44.1969 20.1027 44.2599 20.1668C44.3221 20.2302 44.3424 20.3234 44.3131 20.4054Z" stroke="#23F7DD" stroke-width="0.5"/>
<path d="M5.38483 22.6806C5.43179 22.5086 5.49347 22.3082 5.573 22.0931C5.79258 21.4994 6.15675 20.7705 6.74321 20.2297L5.48552 17.577L5.28232 17.1484L5.75074 17.223L7.42415 17.4895L7.42609 17.4898C7.5112 17.5041 7.59557 17.4688 7.64724 17.3965L7.64775 17.3958C7.69861 17.3251 7.70492 17.2314 7.66472 17.155L5.38483 22.6806ZM5.38483 22.6806L0.289236 15.0781L0.289027 15.0778C0.245266 15.0127 0.237812 14.9296 0.269178 14.858C0.300682 14.786 0.366729 14.7349 0.444507 14.7225L5.38483 22.6806Z" stroke="#23F7DD" stroke-width="0.5"/>
<path d="M38.7153 27.7374L38.7147 27.7375C38.4813 27.7729 38.2507 27.7903 38.023 27.7903C36.4568 27.7903 35.0764 26.9917 34.0903 26.2014C33.1 25.4078 32.4757 24.597 32.4171 24.5202L32.4166 24.5196C32.2748 24.3325 32.2321 24.0878 32.3011 23.8642L38.7153 27.7374ZM38.7153 27.7374C41.2369 27.3477 43.2577 24.8631 44.7871 20.5736C44.8812 20.3101 44.8155 20.0157 44.6198 19.8164L44.4414 19.9916M38.7153 27.7374L44.4414 19.9916M44.4414 19.9916L44.6198 19.8164C44.4252 19.6183 44.1327 19.5441 43.8642 19.6371C43.8637 19.6372 43.8633 19.6373 43.8629 19.6375L32.765 23.3868M44.4414 19.9916L32.765 23.3868M26.0167 24.5196L26.0163 24.5202C25.9576 24.597 25.3331 25.4078 24.3427 26.2014C23.3565 26.9917 21.9761 27.7903 20.4104 27.7903C20.1826 27.7903 19.952 27.7729 19.7186 27.7374L19.718 27.7373C17.1964 27.3477 15.1755 24.863 13.6462 20.5734C13.5521 20.31 13.6178 20.0157 13.8135 19.8164L13.8146 19.8153C14.0099 19.6189 14.3023 19.5473 14.5679 19.6366L14.5682 19.6367L25.6683 23.3868L26.0167 24.5196ZM26.0167 24.5196C26.1585 24.3325 26.2011 24.0878 26.1322 23.8642M26.0167 24.5196L26.1322 23.8642M19.1921 6.97081C19.5265 6.74589 19.6152 6.29334 19.3909 5.95869C19.1676 5.62543 18.7131 5.53122 18.3782 5.75859C18.205 5.87477 14.6468 8.29755 12.8417 12.8733L12.8416 12.8734C12.6941 13.2483 12.8786 13.6721 13.2535 13.8204L13.2543 13.8207C13.341 13.8547 13.4313 13.8716 13.5213 13.8716C13.8128 13.8716 14.087 13.6957 14.2008 13.4089L14.201 13.4085C15.8286 9.2813 19.1336 7.01083 19.1921 6.97081ZM19.1921 6.97081C19.1918 6.97103 19.1915 6.97125 19.1911 6.97147L19.0519 6.76381L19.1928 6.97035C19.1927 6.97043 19.1925 6.97058 19.1921 6.97081ZM45.3946 43.5411L45.3946 43.5412C45.3862 43.7083 45.3205 43.8666 45.2092 43.9909L38.7451 51.2326C38.6009 51.3948 38.4004 51.4767 38.2004 51.4767C38.032 51.4767 37.8621 51.4185 37.7247 51.3012L37.7239 51.3005L32.3629 46.6878H25.819L21.3663 51.2558C21.3662 51.2559 21.3661 51.256 21.366 51.2561C21.3076 51.3165 21.2361 51.3762 21.1435 51.4183C21.0502 51.4608 20.9493 51.479 20.8394 51.4767C20.6478 51.4759 20.4632 51.4002 20.3265 51.2626L20.3266 51.2628L20.5034 51.086L20.3259 51.262L45.3946 43.5411ZM45.3946 43.5411L46.0378 30.6088C46.0378 30.6088 46.0378 30.6088 46.0378 30.6087C46.0497 30.3712 45.9452 30.1431 45.7586 29.997L45.7573 29.9959C45.5724 29.8532 45.327 29.8027 45.0972 29.8733C45.0969 29.8734 45.0965 29.8736 45.0961 29.8737L37.3379 32.2018L29.8149 26.3275L45.3946 43.5411ZM32.765 23.3868L32.7648 23.3869C32.5419 23.462 32.3699 23.6405 32.3011 23.8642L32.765 23.3868ZM26.1322 23.8642C26.0634 23.6405 25.8914 23.462 25.6685 23.3868L26.1322 23.8642ZM29.1828 0.252016L29.1828 0.25214L29.1907 0.252169C39.5732 0.290116 44.7408 5.22606 47.2544 9.34283L47.4678 9.21255L47.2544 9.34284C47.5322 9.79778 47.7843 10.2518 48.0132 10.7006L48.2359 10.5871L48.0132 10.7007C49.1712 12.9718 49.5996 15.5425 49.3308 18.0819L49.3266 18.0789L49.271 18.486L47.6113 30.6463L47.3176 32.0627L47.2367 32.4525L47.3736 32.4183L45.6911 44.7124L45.6905 44.7165L45.4423 46.3304L39.4108 52.8104L19.7288 52.8205L13.2545 46.1194L13.1002 44.6515L13.0996 44.647L11.5126 31.8041L11.5153 31.8036L11.4864 31.5693L10.1702 20.9012L10.1704 20.9012L10.1687 20.8912L10.15 20.7776L10.0443 19.9226L10.0446 19.9226L10.0425 19.9103C9.55899 17.143 9.75983 14.2742 10.8306 11.6931C13.2447 5.87442 17.7147 3.01178 21.6497 1.60273C25.5897 0.191916 28.9789 0.24484 29.1828 0.252016ZM20.148 4.5298L20.1476 4.53C19.7897 4.7155 19.6498 5.15624 19.8349 5.51464L19.8354 5.51547C19.9659 5.76582 20.2203 5.90939 20.4846 5.90939C20.5996 5.90939 20.7132 5.88147 20.8178 5.82858L20.8178 5.82859L20.8202 5.82734C21.0297 5.71857 21.4412 5.51581 21.8707 5.32745C22.308 5.13563 22.7369 4.97106 22.9931 4.92351L22.9932 4.92348C23.3886 4.84987 23.6515 4.46974 23.5778 4.07245C23.5051 3.68078 23.1279 3.40739 22.7248 3.48809C22.2828 3.57031 21.6746 3.81432 21.1727 4.03817C20.6628 4.26557 20.2354 4.48471 20.148 4.5298ZM13.5635 44.4996L13.7394 44.322L13.5627 44.4988L13.5631 44.4992C13.5632 44.4994 13.5633 44.4995 13.5635 44.4996ZM12.7917 29.934L13.3489 44.0112L29.8145 26.3272C29.5616 26.1292 29.2086 26.1193 28.9455 26.3048C28.9454 26.3049 28.9452 26.305 28.9451 26.3051L21.1384 31.789L13.7616 29.216L13.7602 29.2155C13.5319 29.1375 13.2828 29.1756 13.0883 29.3171L13.0863 29.3185C12.8926 29.4623 12.7821 29.6927 12.7917 29.934L12.7917 29.934Z" stroke="#23F7DD" stroke-width="0.5"/>
<mask id="path-23-inside-2_8_64" fill="white">
<path d="M9.9209 20.9316L9.90137 20.8131L11.2344 31.6002L11.2371 31.5997L9.9209 20.9316Z"/>
</mask>
<path d="M9.9209 20.9316L10.4171 20.8704L10.4159 20.8603L10.4142 20.8503L9.9209 20.9316ZM9.90137 20.8131L10.3947 20.7318L9.40514 20.8744L9.90137 20.8131ZM11.2344 31.6002L10.7382 31.6615L10.8027 32.184L11.3212 32.0926L11.2344 31.6002ZM11.2371 31.5997L11.3239 32.0921L11.7915 32.0097L11.7334 31.5385L11.2371 31.5997ZM10.4142 20.8503L10.3947 20.7318L9.40802 20.8944L9.42755 21.0129L10.4142 20.8503ZM9.40514 20.8744L10.7382 31.6615L11.7306 31.5388L10.3976 20.7518L9.40514 20.8744ZM11.3212 32.0926L11.3239 32.0921L11.1503 31.1073L11.1476 31.1078L11.3212 32.0926ZM11.7334 31.5385L10.4171 20.8704L9.42466 20.9929L10.7409 31.6609L11.7334 31.5385Z" fill="#23F7DD" mask="url(#path-23-inside-2_8_64)"/>
<path d="M10.0665 30.5852C10.0512 30.583 10.0359 30.5792 10.0212 30.5738L10.0197 30.5733C9.97501 30.5572 9.93068 30.5405 9.8867 30.5233L9.92123 30.8035C9.92577 30.8052 9.93032 30.8068 9.93488 30.8085C9.9644 30.8193 9.99465 30.827 10.025 30.8318L10.0974 30.8228L10.1743 30.8133L10.1315 30.567C10.1041 30.5718 10.0817 30.5794 10.0665 30.5852ZM10.0665 30.5852C10.0655 30.5856 10.0645 30.586 10.0636 30.5863C10.0559 30.5893 10.0494 30.5922 10.045 30.5941L10.0393 30.5966L10.0359 30.5981C10.0348 30.5986 10.0344 30.5988 10.0347 30.5986C10.0353 30.5984 10.0401 30.5964 10.0467 30.5945C10.0572 30.5914 10.0749 30.5874 10.0974 30.5874C10.0872 30.5874 10.0769 30.5867 10.0665 30.5852ZM8.62451 20.4996L8.72798 21.1243L8.62451 20.4996ZM8.62451 20.4996C8.31403 20.7555 7.86693 21.1887 7.46629 21.7751C6.89498 22.6113 6.42841 23.7432 6.56934 25.1074C6.56937 25.1077 6.5694 25.108 6.56943 25.1083L6.71069 26.3795C6.71069 26.3796 6.7107 26.3796 6.7107 26.3797L8.62451 20.4996ZM9.80058 29.8242L10.0485 29.7937L9.80058 29.8242L9.80058 29.8242Z" stroke="#23F7DD" stroke-width="0.5"/>
</svg>
