<svg width="33" height="33" viewBox="0 0 33 33" fill="none" xmlns="http://www.w3.org/2000/svg">
<path d="M28.3904 3.67702L18.0844 11.3314L19.9902 6.81543L28.3904 3.67702Z" fill="#E2761B" stroke="#E2761B" stroke-linecap="round" stroke-linejoin="round"/>
<path d="M4.59905 3.67702L14.8222 11.4039L13.0096 6.81544L4.59905 3.67702ZM24.6828 21.42L21.938 25.6252L27.8109 27.241L29.4992 21.5132L24.6828 21.42ZM3.51147 21.5132L5.18944 27.241L11.0623 25.6252L8.3175 21.42L3.51147 21.5132Z" fill="#E4761B" stroke="#E4761B" stroke-linecap="round" stroke-linejoin="round"/>
<path d="M10.731 14.3145L9.09442 16.79L14.9259 17.049L14.7187 10.7825L10.731 14.3145ZM22.2592 14.3145L18.2197 10.71L18.085 17.049L23.9061 16.79L22.2592 14.3145ZM11.0624 25.6252L14.5633 23.9162L11.5389 21.5546L11.0624 25.6252ZM18.4268 23.9162L21.9381 25.6252L21.4513 21.5546L18.4268 23.9162Z" fill="#E4761B" stroke="#E4761B" stroke-linecap="round" stroke-linejoin="round"/>
<path d="M21.938 25.6252L18.4267 23.9162L18.7063 26.2053L18.6753 27.1685L21.938 25.6252ZM11.0623 25.6252L14.325 27.1685L14.3043 26.2053L14.5632 23.9162L11.0623 25.6252Z" fill="#D7C1B3" stroke="#D7C1B3" stroke-linecap="round" stroke-linejoin="round"/>
<path d="M14.3764 20.0424L11.4555 19.1827L13.5167 18.2401L14.3764 20.0424ZM18.6128 20.0424L19.4725 18.2401L21.544 19.1827L18.6128 20.0424Z" fill="#233447" stroke="#233447" stroke-linecap="round" stroke-linejoin="round"/>
<path d="M11.0625 25.6252L11.5597 21.42L8.31769 21.5132L11.0625 25.6252ZM21.441 21.42L21.9382 25.6252L24.683 21.5132L21.441 21.42ZM23.9062 16.79L18.0851 17.049L18.6237 20.0424L19.4834 18.2401L21.555 19.1827L23.9062 16.79ZM11.4561 19.1827L13.5277 18.2401L14.377 20.0424L14.926 17.049L9.09452 16.79L11.4561 19.1827Z" fill="#CD6116" stroke="#CD6116" stroke-linecap="round" stroke-linejoin="round"/>
<path d="M9.09442 16.79L11.5389 21.5546L11.456 19.1827L9.09442 16.79ZM21.5549 19.1827L21.4513 21.5546L23.9061 16.79L21.5549 19.1827ZM14.9259 17.049L14.3769 20.0424L15.0605 23.5744L15.2159 18.9237L14.9259 17.049ZM18.085 17.049L17.8053 18.9134L17.9296 23.5744L18.6236 20.0424L18.085 17.049Z" fill="#E4751F" stroke="#E4751F" stroke-linecap="round" stroke-linejoin="round"/>
<path d="M18.6231 20.0424L17.9291 23.5744L18.4263 23.9162L21.4508 21.5546L21.5544 19.1827L18.6231 20.0424ZM11.4555 19.1827L11.5384 21.5546L14.5629 23.9162L15.06 23.5744L14.3764 20.0424L11.4555 19.1827Z" fill="#F6851B" stroke="#F6851B" stroke-linecap="round" stroke-linejoin="round"/>
<path d="M18.6753 27.1686L18.7063 26.2053L18.4474 25.9774H14.5425L14.3043 26.2053L14.325 27.1686L11.0623 25.6252L12.2016 26.5574L14.5114 28.1629H18.4785L20.7986 26.5574L21.938 25.6252L18.6753 27.1686Z" fill="#C0AD9E" stroke="#C0AD9E" stroke-linecap="round" stroke-linejoin="round"/>
<path d="M18.4269 23.9162L17.9297 23.5744H15.0606L14.5634 23.9162L14.3045 26.2053L14.5427 25.9774H18.4476L18.7066 26.2053L18.4269 23.9162Z" fill="#161616" stroke="#161616" stroke-linecap="round" stroke-linejoin="round"/>
<path d="M28.8257 11.8286L29.7061 7.60263L28.3906 3.67702L18.4264 11.0725L22.2588 14.3145L27.6759 15.8992L28.8774 14.5009L28.3596 14.1281L29.1882 13.3719L28.546 12.8748L29.3746 12.2429L28.8257 11.8286ZM3.29364 7.60263L4.17405 11.8286L3.61473 12.2429L4.44336 12.8748L3.81153 13.3719L4.64016 14.1281L4.12227 14.5009L5.31341 15.8992L10.7306 14.3145L14.5629 11.0725L4.59873 3.67702L3.29364 7.60263Z" fill="#763D16" stroke="#763D16" stroke-linecap="round" stroke-linejoin="round"/>
<path d="M27.6763 15.8992L22.2591 14.3145L23.906 16.79L21.4512 21.5546L24.6828 21.5132H29.4992L27.6763 15.8992ZM10.7309 14.3145L5.31373 15.8992L3.51147 21.5132H8.3175L11.5388 21.5546L9.09434 16.79L10.7309 14.3145ZM18.0849 17.049L18.4267 11.0725L20.0011 6.81543H13.0096L14.5633 11.0725L14.9258 17.049L15.0501 18.9341L15.0604 23.5744H17.9296L17.9503 18.9341L18.0849 17.049Z" fill="#F6851B" stroke="#F6851B" stroke-linecap="round" stroke-linejoin="round"/>
</svg>
