<svg width="67" height="25" viewBox="0 0 67 25" fill="none" xmlns="http://www.w3.org/2000/svg">
<path d="M23.3505 23.6485V21.1284H26.1795V18.6082H29.0084V11.0476H37.4954V18.6082H40.3243V21.1284H43.1533V23.6485H57.2982V21.1284H60.1271V18.6082H62.9561V16.088H65.7851V11.0476H0.718735V16.088H3.54771V18.6082H6.37668V21.1284H9.20565V23.6485H23.3505Z" stroke="#0BABC1" stroke-miterlimit="10" stroke-linecap="round" stroke-linejoin="round"/>
<path d="M44.5673 13.5679H41.7383V16.0881H44.5673V13.5679Z" fill="#0BABC1"/>
<path d="M47.3993 16.0879H44.5703V18.6081H47.3993V16.0879Z" fill="#0BABC1"/>
<path d="M50.2274 18.6082H47.3984V21.1283H50.2274V18.6082Z" fill="#0BABC1"/>
<path d="M10.618 13.5679H7.78906V16.0881H10.618V13.5679Z" fill="#0BABC1"/>
<path d="M13.4462 16.0879H10.6172V18.6081H13.4462V16.0879Z" fill="#0BABC1"/>
<path d="M16.2782 18.6082H13.4492V21.1283H16.2782V18.6082Z" fill="#0BABC1"/>
<path d="M0.71875 11.0476L23.3505 0.966797H29.0085V3.48699" stroke="#0BABC1" stroke-miterlimit="10" stroke-linecap="round" stroke-linejoin="round"/>
<path d="M65.7858 11.0476L43.154 0.966797H37.4961V3.48699" stroke="#0BABC1" stroke-miterlimit="10" stroke-linecap="round" stroke-linejoin="round"/>
</svg>
