<svg width="32" height="23" viewBox="0 0 32 23" fill="none" xmlns="http://www.w3.org/2000/svg">
<path d="M2.66667 22.6667C1.93333 22.6667 1.30556 22.4056 0.783333 21.8833C0.261111 21.3611 0 20.7333 0 20H5.33333C4.6 20 3.97222 19.7389 3.45 19.2167C2.92778 18.6945 2.66667 18.0667 2.66667 17.3333V2.66667C2.66667 1.93333 2.92778 1.30556 3.45 0.783334C3.97222 0.261111 4.6 0 5.33333 0H26.6667C27.4 0 28.0278 0.261111 28.55 0.783334C29.0722 1.30556 29.3333 1.93333 29.3333 2.66667V17.3333C29.3333 18.0667 29.0722 18.6945 28.55 19.2167C28.0278 19.7389 27.4 20 26.6667 20H32C32 20.7333 31.7389 21.3611 31.2167 21.8833C30.6944 22.4056 30.0667 22.6667 29.3333 22.6667H2.66667ZM16 21.3333C16.3778 21.3333 16.6944 21.2056 16.95 20.95C17.2056 20.6945 17.3333 20.3778 17.3333 20C17.3333 19.6222 17.2056 19.3056 16.95 19.05C16.6944 18.7945 16.3778 18.6667 16 18.6667C15.6222 18.6667 15.3056 18.7945 15.05 19.05C14.7944 19.3056 14.6667 19.6222 14.6667 20C14.6667 20.3778 14.7944 20.6945 15.05 20.95C15.3056 21.2056 15.6222 21.3333 16 21.3333Z" fill="white"/>
</svg>
