<svg width="124" height="39" viewBox="0 0 124 39" fill="none" xmlns="http://www.w3.org/2000/svg">
<path d="M104.988 29.9013H109.626V13.5572C111.117 13.196 112.648 13.0254 114.181 13.0497C116.751 13.0497 118.486 13.8913 118.486 17.0136V29.9013H123.079V16.8852C123.079 10.981 119.835 8.66174 114.265 8.66174C111.149 8.66174 107.269 9.13074 104.988 10.0109V29.9013Z" fill="#404042"/>
<path d="M96.7259 19.4999C96.7259 23.4639 95.8393 25.9952 91.7083 25.9952C87.5773 25.9952 86.6907 23.4639 86.6907 19.4999C86.6907 15.536 87.6159 13.0754 91.7083 13.0754C95.8007 13.0754 96.7259 15.5617 96.7259 19.4999ZM91.7083 30.3767C98.2421 30.3767 101.345 26.0787 101.345 19.4999C101.345 12.6707 98.4798 8.66174 91.7083 8.66174C85.2131 8.66174 82.0137 12.9212 82.0137 19.4999C82.0137 26.3742 84.9176 30.3767 91.7083 30.3767Z" fill="#404042"/>
<path d="M67.1279 22.4939C67.1279 28.4366 70.3723 30.3382 74.8823 30.3382C76.6566 30.3663 78.4195 30.0499 80.0734 29.4067L79.3538 25.0251C77.9373 25.6487 76.4043 25.964 74.8567 25.9503C73 25.9503 71.7793 25.1087 71.7793 22.5388V13.4738H79.2832V9.08585H71.7665V3.60571H67.1279V22.4939Z" fill="#404042"/>
<path d="M58.8593 19.4999C58.8593 23.4639 57.9791 25.9952 53.8417 25.9952C49.7043 25.9952 48.8241 23.4639 48.8241 19.4999C48.8241 15.536 49.7557 13.0754 53.8417 13.0754C57.9277 13.0754 58.8593 15.5617 58.8593 19.4999ZM53.8738 30.3767C60.414 30.3767 63.5107 26.0787 63.5107 19.4999C63.5107 12.6707 60.6453 8.66174 53.8738 8.66174C47.385 8.66174 44.1792 12.9212 44.1792 19.4999C44.1792 26.3742 47.0895 30.3767 53.8738 30.3767Z" fill="#404042"/>
<path d="M22.4321 29.9014H27.0707V13.5574C28.5603 13.19 30.0917 13.0193 31.6256 13.0498C34.1955 13.0498 35.9237 13.8914 35.9237 17.0138V29.9014H40.5172V17.0138C40.5172 10.8141 37.0223 8.66187 31.8312 8.66187C30.2242 8.62881 28.6208 8.82788 27.0707 9.25292V0.399902H22.4321V29.9014Z" fill="#404042"/>
<path d="M0.672261 38.8571H5.31078V29.7857C6.4316 30.1964 7.61861 30.3968 8.81216 30.3767C15.1789 30.3767 18.8023 26.2907 18.8023 19.2044C18.8023 12.3751 15.5901 8.66175 8.34959 8.66175C5.72629 8.6595 3.1209 9.09373 0.640137 9.94666V38.8571H0.672261ZM14.1253 19.5C14.1253 23.8044 12.9881 25.9952 8.60015 25.9952C7.46275 26.0735 6.32552 25.8403 5.31078 25.3206V13.5123C6.35995 13.1733 7.45951 13.0168 8.5616 13.0497C12.7311 13.0497 14.1253 14.7329 14.1253 19.4743V19.5Z" fill="#404042"/>
</svg>
