<svg width="33" height="33" viewBox="0 0 33 33" fill="none" xmlns="http://www.w3.org/2000/svg">
<rect width="33" height="33" rx="5" fill="black"/>
<g clip-path="url(#clip0_33_3)">
<path d="M13.0195 8.91642C12.7325 8.87617 12.7188 8.86275 12.8555 8.84934C13.1151 8.80909 13.7165 8.86275 14.1401 8.95666C15.1241 9.18473 16.0124 9.77503 16.9553 10.8081L17.2013 11.0898L17.5566 11.0361C19.0736 10.7946 20.6315 10.9825 21.9298 11.5728C22.2851 11.7338 22.8454 12.0557 22.9137 12.1362C22.941 12.1631 22.982 12.3375 23.0094 12.5119C23.105 13.1424 23.064 13.612 22.8591 13.9742C22.7497 14.1754 22.7497 14.2291 22.8181 14.4035C22.8727 14.5377 23.0367 14.6316 23.187 14.6316C23.515 14.6316 23.8567 14.1218 24.0207 13.4107L24.089 13.129L24.212 13.2632C24.909 14.0279 25.4556 15.0877 25.5376 15.839L25.5649 16.0403L25.4419 15.8658C25.2369 15.5573 25.0456 15.356 24.786 15.1816C24.3213 14.8731 23.8293 14.7792 22.5311 14.7121C21.3558 14.645 20.6861 14.5511 20.0302 14.3364C18.9096 13.9742 18.3356 13.5047 17.01 11.774C16.4223 11.0093 16.0533 10.5934 15.6844 10.2446C14.8781 9.47988 14.0718 9.07741 13.0195 8.91642Z" fill="#FF007A"/>
<path d="M23.2007 10.6202C23.228 10.1104 23.2964 9.77504 23.4467 9.46647C23.5013 9.34573 23.556 9.2384 23.5697 9.2384C23.5833 9.2384 23.556 9.33231 23.515 9.43964C23.4057 9.73479 23.392 10.1507 23.4604 10.6202C23.556 11.224 23.597 11.3045 24.253 11.9618C24.5536 12.2704 24.909 12.6595 25.0456 12.8204L25.2779 13.1156L25.0456 12.9009C24.7586 12.6326 24.1027 12.1228 23.9523 12.0557C23.8567 12.0021 23.843 12.0021 23.7747 12.0692C23.72 12.1228 23.7063 12.2033 23.7063 12.5924C23.6927 13.1961 23.6107 13.5717 23.4057 13.9608C23.2964 14.162 23.2827 14.1218 23.3784 13.8937C23.4467 13.7193 23.4604 13.6388 23.4604 13.0619C23.4604 11.8948 23.3237 11.613 22.4901 11.1435C22.2851 11.0227 21.9298 10.8483 21.7248 10.7544C21.5061 10.6605 21.3421 10.58 21.3558 10.58C21.3831 10.5532 22.1894 10.7812 22.5037 10.9154C22.982 11.1032 23.064 11.1166 23.1187 11.1032C23.1597 11.063 23.187 10.9556 23.2007 10.6202Z" fill="#FF007A"/>
<path d="M13.5799 12.6192C13.0059 11.8411 12.6369 10.6337 12.7189 9.7348L12.7462 9.45306L12.8829 9.4799C13.1289 9.52014 13.5525 9.68113 13.7575 9.80188C14.3042 10.1239 14.5501 10.5666 14.7825 11.6667C14.8508 11.9887 14.9465 12.3643 14.9875 12.4851C15.0558 12.6863 15.3154 13.1559 15.5341 13.451C15.6844 13.6657 15.5888 13.773 15.2471 13.7462C14.7278 13.6925 14.0308 13.2229 13.5799 12.6192Z" fill="#FF007A"/>
<path d="M22.5038 18.4551C19.7979 17.3818 18.8413 16.4561 18.8413 14.8865C18.8413 14.6584 18.855 14.4706 18.855 14.4706C18.8686 14.4706 18.9643 14.5511 19.0873 14.645C19.6339 15.0743 20.2489 15.2621 21.9572 15.5036C22.9548 15.6512 23.5288 15.7585 24.0481 15.9329C25.7017 16.4695 26.7266 17.5697 26.9726 19.0588C27.041 19.4881 27 20.3065 26.8906 20.7358C26.795 21.0712 26.5216 21.6883 26.4533 21.7017C26.4396 21.7017 26.4123 21.6347 26.4123 21.5273C26.385 20.9639 26.098 20.4272 25.6197 20.0113C25.0457 19.5284 24.3077 19.1661 22.5038 18.4551Z" fill="#FF007A"/>
<path d="M20.5906 18.8978C20.5633 18.6966 20.4949 18.4417 20.4539 18.3344L20.3856 18.1331L20.5086 18.2807C20.6863 18.4819 20.8229 18.7234 20.9459 19.0588C21.0416 19.3137 21.0416 19.3942 21.0416 19.8101C21.0416 20.2126 21.0279 20.3065 20.9459 20.5346C20.8092 20.8968 20.6453 21.1517 20.3719 21.4334C19.88 21.9298 19.2376 22.1981 18.322 22.3189C18.158 22.3323 17.6934 22.3725 17.2834 22.3994C16.2584 22.453 15.5751 22.5604 14.9602 22.775C14.8782 22.8018 14.7962 22.8287 14.7825 22.8153C14.7552 22.7884 15.1788 22.5469 15.5205 22.386C15.9988 22.1579 16.4908 22.0371 17.5704 21.8493C18.1034 21.7688 18.65 21.6615 18.7867 21.6078C20.1396 21.1919 20.8092 20.1589 20.5906 18.8978Z" fill="#FF007A"/>
<path d="M21.8342 21.0578C21.4789 20.2931 21.3969 19.5686 21.5882 18.8844C21.6156 18.8173 21.6429 18.7502 21.6702 18.7502C21.6976 18.7502 21.7796 18.7905 21.8616 18.8442C22.0256 18.9515 22.3672 19.1393 23.2418 19.6089C24.3488 20.1992 24.9774 20.6553 25.4147 21.1785C25.7974 21.6347 26.0297 22.1579 26.139 22.8018C26.2074 23.1641 26.1664 24.0361 26.0707 24.3983C25.7701 25.5387 25.0868 26.451 24.0891 26.9742C23.9388 27.0547 23.8158 27.1083 23.8021 27.1083C23.7885 27.1083 23.8431 26.9742 23.9251 26.8132C24.2531 26.129 24.2941 25.4716 24.0481 24.7337C23.8978 24.2776 23.5835 23.7275 22.9548 22.8018C22.2032 21.7286 22.0256 21.4468 21.8342 21.0578Z" fill="#FF007A"/>
<path d="M11.6532 25.1631C12.6645 24.3313 13.9081 23.741 15.0561 23.5532C15.548 23.4727 16.368 23.4995 16.819 23.6202C17.5433 23.8081 18.1992 24.2105 18.5409 24.7069C18.8689 25.1899 19.0192 25.6058 19.1695 26.5315C19.2242 26.8937 19.2925 27.2694 19.3062 27.3499C19.4155 27.8328 19.6342 28.2085 19.9075 28.4097C20.3312 28.7183 21.0691 28.7317 21.7934 28.4634C21.9164 28.4231 22.0257 28.3829 22.0257 28.3963C22.0531 28.4231 21.6841 28.6646 21.4381 28.7854C21.0965 28.9598 20.8231 29.0134 20.4541 29.0134C19.7982 29.0134 19.2379 28.678 18.7869 28.0072C18.6912 27.8731 18.4999 27.484 18.3359 27.1218C17.8576 26.0351 17.6116 25.7131 17.0513 25.3509C16.5593 25.0423 15.9307 24.9752 15.4524 25.2033C14.8237 25.4985 14.6597 26.29 15.097 26.773C15.2747 26.9742 15.6027 27.1352 15.876 27.1754C16.3817 27.2425 16.819 26.8535 16.819 26.3571C16.819 26.0351 16.696 25.8473 16.368 25.6997C15.9307 25.5119 15.4524 25.7265 15.466 26.1424C15.466 26.3168 15.548 26.4242 15.7257 26.5046C15.835 26.5583 15.835 26.5583 15.753 26.5449C15.3567 26.4644 15.261 25.9814 15.5754 25.6729C15.958 25.2972 16.7643 25.4582 17.0376 25.9814C17.147 26.1961 17.1606 26.6254 17.065 26.8937C16.8326 27.484 16.1767 27.7926 15.507 27.6182C15.056 27.4974 14.8647 27.3767 14.3181 26.8266C13.3615 25.8607 12.9925 25.6729 11.6259 25.4716L11.3662 25.4314L11.6532 25.1631Z" fill="#FF007A"/>
<path fill-rule="evenodd" clip-rule="evenodd" d="M4.46428 3.57688C7.64847 7.37358 12.5546 13.2766 12.8006 13.5986C13.0056 13.8669 12.9236 14.1218 12.5819 14.3096C12.3906 14.4169 11.9943 14.5243 11.803 14.5243C11.5843 14.5243 11.3246 14.4169 11.147 14.2425C11.024 14.1218 10.491 13.3571 9.2884 11.5191C8.37278 10.1104 7.59381 8.94324 7.58014 8.92982C7.52548 8.90299 7.52548 8.90299 9.19274 11.8277C10.245 13.6656 10.5867 14.323 10.5867 14.4035C10.5867 14.5779 10.532 14.6718 10.3134 14.9133C9.94437 15.3158 9.78038 15.7719 9.65739 16.7245C9.52073 17.7843 9.15174 18.5356 8.09945 19.8101C7.48448 20.5614 7.38882 20.6956 7.23849 21.0041C7.04717 21.3798 6.9925 21.5944 6.96517 22.0774C6.93784 22.5872 6.9925 22.9092 7.14283 23.3922C7.27949 23.8215 7.42982 24.1032 7.7988 24.6532C8.11312 25.1362 8.30444 25.4985 8.30444 25.6326C8.30444 25.7399 8.33178 25.7399 8.82376 25.6326C9.99904 25.3643 10.9693 24.9082 11.5023 24.3447C11.8303 23.9959 11.9123 23.808 11.9123 23.3251C11.9123 23.0165 11.8986 22.9494 11.8166 22.7616C11.68 22.4665 11.4203 22.225 10.86 21.8493C10.122 21.3529 9.80771 20.9505 9.72572 20.4138C9.65739 19.9577 9.73938 19.6491 10.1494 18.8039C10.573 17.9319 10.6823 17.5697 10.7507 16.6842C10.7917 16.1207 10.86 15.8927 11.024 15.7183C11.2017 15.5304 11.352 15.4634 11.7756 15.4097C12.4726 15.3158 12.9236 15.1414 13.2789 14.806C13.5932 14.5243 13.7299 14.2425 13.7435 13.8266L13.7572 13.5181L13.5795 13.3302C12.9372 12.6058 4.04063 3 3.99963 3C3.98597 3 4.20462 3.2549 4.46428 3.57688ZM8.65976 22.6543C8.81009 22.3994 8.72809 22.0774 8.4821 21.9164C8.24978 21.7688 7.89446 21.8359 7.89446 22.0372C7.89446 22.0908 7.92179 22.1445 8.00379 22.1713C8.12679 22.2384 8.14045 22.3055 8.04479 22.453C7.94913 22.6006 7.94913 22.7348 8.07212 22.8287C8.26345 22.9763 8.5231 22.8958 8.65976 22.6543Z" fill="#FF007A"/>
<path fill-rule="evenodd" clip-rule="evenodd" d="M14.195 15.5975C13.867 15.6914 13.5527 16.0402 13.4571 16.389C13.4024 16.6037 13.4297 16.9927 13.5254 17.1135C13.6757 17.3013 13.8124 17.355 14.195 17.355C14.9467 17.355 15.589 17.033 15.6573 16.6439C15.7256 16.3219 15.4386 15.8792 15.0423 15.678C14.8373 15.5707 14.4137 15.5304 14.195 15.5975ZM15.0697 16.2683C15.179 16.1073 15.138 15.9329 14.933 15.8121C14.564 15.5841 14.0037 15.7719 14.0037 16.1207C14.0037 16.2951 14.2907 16.4829 14.564 16.4829C14.7417 16.4829 14.9877 16.3756 15.0697 16.2683Z" fill="#FF007A"/>
</g>
<defs>
<clipPath id="clip0_33_3">
<rect width="23" height="26" fill="white" transform="translate(4 3)"/>
</clipPath>
</defs>
</svg>
