<svg width="173" height="70" viewBox="0 0 173 70" fill="none" xmlns="http://www.w3.org/2000/svg">
<path d="M72.4004 37.649V21.041H79.3636V37.9085C79.3636 40.7198 80.8341 42.5579 84.2509 42.5579C87.4298 42.5579 89.0084 40.6117 89.0084 37.8004V21.0627H95.9716V37.6707C95.9716 44.1365 92.0575 48.0507 84.2509 48.0507C76.2929 48.1372 72.4004 44.2447 72.4004 37.649ZM99.1289 27.3772H105.357V30.1884H105.487C106.957 27.9827 108.903 26.9014 111.715 26.9014C116.105 26.9014 118.678 30.0803 118.678 34.5999V47.6614H112.212V35.8109C112.212 33.7349 111.109 32.2644 109.033 32.2644C106.957 32.2644 105.487 34.1025 105.487 36.5462V47.6614H99.0208V27.3988L99.1289 27.3772ZM121.987 19.4408H128.452V24.6957H121.987V19.4408ZM121.987 27.3772H128.452V47.5317H121.987V27.3772ZM133.469 42.2768V32.632H130.788V27.3772H133.469V21.0194H139.697V27.3772H143.352V32.632H139.697V40.936C139.697 42.5147 140.562 42.8823 141.903 42.8823H143.374V47.5317C142.206 47.7695 141.017 47.8993 139.827 47.8993C136.151 47.8993 133.469 46.6667 133.469 42.2768ZM147.374 49.24H149.58C151.418 49.24 152.262 48.5048 152.262 47.164C152.262 46.299 151.894 45.088 151.029 43.012L145.039 27.5069H151.764L154.446 36.0488C155.051 37.995 155.678 40.6982 155.678 40.6982H155.808C155.808 40.6982 156.414 38.0167 157.019 36.0488L159.701 27.5069H166.166L159.203 47.8993C157.625 52.6568 155.657 54.257 151.634 54.257H147.482L147.374 49.24Z" fill="#404042"/>
<path d="M58.712 46.7964V19.4408L35.0326 5.7738V16.2619L44.3098 21.6466C44.6774 21.8844 44.6774 22.3818 44.3098 22.5116L33.3026 28.8693C32.9999 29.0639 32.6323 29.0639 32.3295 28.8693L21.344 22.5116C21.1061 22.4034 20.998 22.1223 21.1061 21.8844C21.1494 21.7763 21.2359 21.6898 21.344 21.6466L30.6211 16.2619V5.7738L6.81201 19.4408V46.7964L15.8513 41.5416V30.7939C15.8945 30.4696 16.1756 30.2533 16.5 30.2966C16.5216 30.2966 16.5649 30.2966 16.5865 30.3182L27.572 36.6759C27.8964 36.8489 28.0694 37.1733 28.0694 37.5409V50.2132C28.0261 50.5376 27.745 50.7538 27.4206 50.7106C27.399 50.7106 27.3558 50.7106 27.3341 50.6889L18.057 45.3259L9.01776 50.5808L32.6971 64.3776L56.3981 50.7106L47.3589 45.4557L38.0818 50.8403C37.7141 51.0782 37.3465 50.8403 37.3465 50.3429V37.6491C37.3465 37.3031 37.5411 36.9787 37.8439 36.7841L48.8294 30.4263C49.197 30.1884 49.5646 30.4263 49.5646 30.9237V41.6713L58.712 46.7964Z" fill="#4C4C4C"/>
<path d="M32.6973 64.3775L56.3983 50.7105L47.359 45.4557L38.0819 50.8403C37.7143 51.0782 37.3466 50.8403 37.3466 50.3429V37.649C37.3466 37.303 37.5413 36.9787 37.844 36.784L48.8295 30.4263C49.1971 30.1884 49.5648 30.4263 49.5648 30.9237V41.6713L58.604 46.9262V19.4408L32.6973 34.4702V64.3775Z" fill="#404042"/>
<path d="M35.0326 5.7738V16.2619L44.3098 21.6466C44.6774 21.8844 44.6774 22.3818 44.3098 22.5116L33.3026 28.8693C32.9999 29.0639 32.6323 29.0639 32.3295 28.8693L21.344 22.5116C21.1061 22.4034 20.998 22.1223 21.1061 21.8844C21.1494 21.7763 21.2359 21.6898 21.344 21.6466L30.6211 16.2619V5.7738L6.81201 19.4408L32.6971 34.4702L58.6039 19.4408L35.0326 5.7738Z" fill="#808080"/>
<path d="M27.4423 50.8403L18.1651 45.4557L9.12589 50.7105L32.8269 64.3775V34.4702L6.81201 19.4408V46.7964L15.8513 41.5415V30.7939C15.8945 30.4695 16.1756 30.2533 16.5 30.2965C16.5216 30.2965 16.5649 30.2965 16.5865 30.3182L27.572 36.6759C27.8964 36.8489 28.0694 37.1733 28.0694 37.5409V50.2132C28.1775 50.7105 27.8099 51.0782 27.4423 50.8403Z" fill="#4C4C4C"/>
</svg>
