<svg width="113" height="93" viewBox="0 0 113 93" fill="none" xmlns="http://www.w3.org/2000/svg">
<g clip-path="url(#clip0_4134_45)">
<path fill-rule="evenodd" clip-rule="evenodd" d="M35.5134 92.8919H26.6836V84.726H35.3745V86.5345H29.0462V87.925H35.037V89.6308H29.0497V91.0373H35.5134V92.8955V92.8919Z" fill="#404042"/>
<path fill-rule="evenodd" clip-rule="evenodd" d="M86.316 92.8919H77.625V84.8552H86.1806V86.6266H79.9542V87.9941H85.8501V89.6716H79.9542V91.0568H86.316V92.8866V92.8919Z" fill="#404042"/>
<path fill-rule="evenodd" clip-rule="evenodd" d="M47.486 92.8919H43.9139L39.2099 86.7843H39.1642V92.8919H36.8262V84.726H40.4562L45.1023 90.8407H45.148V84.726H47.4912V92.8919H47.486Z" fill="#404042"/>
<path fill-rule="evenodd" clip-rule="evenodd" d="M75.7973 92.8919H72.2253L67.5212 86.7843H67.4755V92.8919H65.127V84.726H68.757L73.403 90.8407H73.4488V84.726H75.7973V92.8919Z" fill="#404042"/>
<path fill-rule="evenodd" clip-rule="evenodd" d="M54.3892 93C53.6404 93 52.9958 92.9811 52.4556 92.9433C51.9865 92.9192 51.5208 92.8492 51.0651 92.7343C50.7311 92.6504 50.4164 92.5018 50.1387 92.2968C49.8956 92.1058 49.7045 91.856 49.5832 91.5705C49.4371 91.2247 49.3441 90.8586 49.3072 90.4847C49.2579 89.9832 49.235 89.4794 49.2387 88.9755V88.7363C49.2351 88.2288 49.2592 87.7214 49.3107 87.2165C49.3454 86.841 49.4367 86.4731 49.5814 86.1253C49.7046 85.841 49.8961 85.592 50.1387 85.4009C50.4167 85.1972 50.7323 85.0514 51.0669 84.9722C51.5214 84.8581 51.9859 84.7887 52.4538 84.7649C52.9988 84.7295 53.6433 84.7118 54.3875 84.7118H54.7391C55.3625 84.7118 55.9086 84.7254 56.3774 84.7525C56.783 84.7728 57.1866 84.8226 57.5851 84.9013C57.8765 84.9564 58.158 85.0555 58.4201 85.1954C58.6309 85.3082 58.8118 85.4704 58.9474 85.6683C59.0819 85.8772 59.1722 86.1118 59.2129 86.3574C59.2655 86.6669 59.2902 86.9805 59.2867 87.2944V87.608H57.0015V87.5088C57.0058 87.3485 56.9765 87.1891 56.9153 87.0411C56.8438 86.9023 56.7244 86.7945 56.5796 86.7382C56.3543 86.6504 56.1173 86.5967 55.8764 86.5788C55.5741 86.5493 55.1756 86.5339 54.6811 86.5328H54.4807C54.0318 86.5328 53.6486 86.5404 53.331 86.5558C53.0642 86.5651 52.7989 86.5989 52.5382 86.6567C52.3575 86.6957 52.1868 86.7723 52.0372 86.8817C51.9092 86.9841 51.8129 87.1211 51.7595 87.2767C51.6932 87.4772 51.6542 87.6857 51.6434 87.8967C51.6259 88.1429 51.6171 88.4387 51.6171 88.7824V88.9276C51.6171 89.266 51.6259 89.5547 51.6434 89.7956C51.6546 90.0025 51.6936 90.2069 51.7595 90.4032C51.813 90.5578 51.9094 90.6936 52.0372 90.7946C52.1868 90.904 52.3575 90.9806 52.5382 91.0196C52.7989 91.0773 53.0643 91.1111 53.331 91.1206C53.6486 91.1371 54.0318 91.1448 54.4807 91.1436H54.6811C55.0467 91.1436 55.3614 91.1436 55.625 91.1241C55.8887 91.1046 56.112 91.0887 56.293 91.0603C56.442 91.0393 56.5874 90.9982 56.7255 90.9381C56.8241 90.8938 56.9105 90.8256 56.9768 90.7397C57.0374 90.6578 57.0778 90.5624 57.0946 90.4616C57.1141 90.3374 57.1235 90.2118 57.1227 90.0861V89.8594H54.0131V88.2829H59.3799V90.0967C59.3837 90.4425 59.3584 90.788 59.3043 91.1294C59.2609 91.4 59.1679 91.6601 59.03 91.8964C58.8974 92.1123 58.7169 92.2942 58.5027 92.4278C58.2396 92.586 57.9529 92.7003 57.6536 92.7662C57.2488 92.8583 56.8373 92.9175 56.4231 92.9433C55.945 92.9787 55.3895 92.9964 54.7531 92.9964L54.3892 93Z" fill="#404042"/>
<path fill-rule="evenodd" clip-rule="evenodd" d="M63.4042 92.9114H61.0293V84.8057H63.4042V92.9114Z" fill="#404042"/>
<path fill-rule="evenodd" clip-rule="evenodd" d="M8.47552 80.4481C7.32704 80.4481 6.32036 80.4168 5.45548 80.3542C4.70168 80.3098 3.95271 80.2038 3.21595 80.0372C2.66764 79.9179 2.14143 79.7123 1.65671 79.4278C1.25931 79.1867 0.921974 78.857 0.670537 78.4642C0.411159 78.0428 0.235071 77.5748 0.151963 77.0861C0.0435811 76.4699 -0.0070345 75.8448 0.000784969 75.2191V66.008H4.16696V73.8587C4.16696 74.344 4.18395 74.7609 4.21794 75.1093C4.24181 75.4132 4.31115 75.7118 4.42361 75.9949C4.51854 76.2296 4.67315 76.4349 4.87187 76.5901C5.10457 76.7585 5.36803 76.879 5.64709 76.9444C6.0357 77.0435 6.43323 77.1028 6.83366 77.1215C7.30477 77.1481 7.86378 77.1623 8.51595 77.1623H8.86753C9.51794 77.1623 10.0781 77.1469 10.5481 77.1162C10.9484 77.0959 11.3461 77.0396 11.7364 76.9479C12.0162 76.8848 12.2801 76.7642 12.5116 76.5937C12.7078 76.4363 12.8613 76.2315 12.9581 75.9985C13.072 75.7157 13.142 75.417 13.1655 75.1128C13.1984 74.7585 13.2148 74.3452 13.2148 73.8728V66.0062H17.3827V75.2173C17.3888 75.8408 17.3417 76.4636 17.2421 77.079C17.1649 77.5689 16.9936 78.0388 16.7376 78.4624C16.4901 78.8549 16.1563 79.1846 15.7619 79.4261C15.2786 79.7108 14.7535 79.9165 14.2062 80.0354C13.4666 80.2025 12.7146 80.3085 11.9579 80.3525C11.0848 80.4139 10.0682 80.4452 8.90796 80.4464L8.47552 80.4481Z" fill="#404042"/>
<path fill-rule="evenodd" clip-rule="evenodd" d="M38.8054 80.2727H32.5755L24.3732 69.5914H24.2923V80.2727H20.207V65.9867H26.5354L34.6375 76.6786H34.7166V65.9867H38.8019V80.2656L38.8054 80.2727Z" fill="#404042"/>
<path fill-rule="evenodd" clip-rule="evenodd" d="M51.0879 73.1997C51.8068 73.1997 52.3781 73.1785 52.8053 73.1342C53.1451 73.1142 53.4763 73.0193 53.7757 72.8561C53.9896 72.726 54.1447 72.5169 54.2081 72.2733C54.2838 71.949 54.318 71.6162 54.31 71.2831V71.0369C54.3176 70.7079 54.2833 70.3793 54.2081 70.0591C54.1774 69.9386 54.1228 69.8256 54.0475 69.727C53.9723 69.6284 53.878 69.5461 53.7704 69.4852C53.4673 69.3283 53.1349 69.2372 52.7948 69.2177C52.3676 69.1734 51.7998 69.1522 51.0879 69.1522H45.8951V73.1997H51.0879ZM58.5061 80.2728H54.3892V79.1143C54.3922 78.7547 54.3757 78.3951 54.3399 78.0373C54.3157 77.7719 54.2436 77.5132 54.1272 77.2739C54.023 77.0696 53.8672 76.8967 53.6755 76.7726C53.4386 76.6288 53.1776 76.5297 52.9055 76.4803C52.5172 76.4029 52.1233 76.3567 51.7277 76.3421C51.259 76.3173 50.7035 76.3049 50.0613 76.3049H45.8951V80.2728H41.7676V65.9867H52.7596C53.7134 65.971 54.6667 66.0433 55.6074 66.2028C56.2417 66.3006 56.8441 66.5482 57.3652 66.9256C57.7959 67.2668 58.1079 67.7369 58.2565 68.2683C58.4349 68.9416 58.5178 69.6369 58.5026 70.3337V70.835C58.5084 71.3288 58.4648 71.8219 58.3725 72.307C58.2985 72.692 58.1549 73.0601 57.9489 73.3928C57.7548 73.696 57.4975 73.953 57.1947 74.1456C56.844 74.3606 56.4593 74.5134 56.0574 74.5973V74.6788C56.4743 74.7405 56.8837 74.8455 57.2791 74.9923C57.5783 75.1027 57.8391 75.2984 58.0297 75.5556C58.228 75.8484 58.3556 76.1839 58.4024 76.5352C58.4768 77.0471 58.5103 77.5643 58.5026 78.0816V80.2657L58.5061 80.2728Z" fill="#404042"/>
<path fill-rule="evenodd" clip-rule="evenodd" d="M76.61 80.2727H61.2109V65.9867H76.3674V69.145H65.3367V71.5736H75.7838V74.5565H65.3367V77.017H76.61V80.2656V80.2727Z" fill="#404042"/>
<path fill-rule="evenodd" clip-rule="evenodd" d="M90.5321 74.739L87.6439 69.0087H87.542L84.6749 74.739H90.5321ZM97.8238 80.2834H93.3307L92.0316 77.7202H83.1947L81.9168 80.2834H77.457L85.0669 66.0062H90.1806L97.8238 80.2834Z" fill="#404042"/>
<path fill-rule="evenodd" clip-rule="evenodd" d="M113 80.2834H99.3516V66.0062H103.518V76.9692H113V80.2905V80.2834Z" fill="#404042"/>
<path fill-rule="evenodd" clip-rule="evenodd" d="M73.5338 33.0395C73.0398 35.4414 70.8407 41.6022 63.832 44.9395L61.0194 41.751L56.2732 46.562C53.5707 46.5254 50.9133 45.8596 48.5085 44.6166C46.1037 43.3737 44.0167 41.5872 42.4105 39.3969C42.9155 39.5551 43.4369 39.6538 43.9645 39.6909C44.7415 39.7051 45.5835 39.4181 45.5835 38.0967V25.1215C45.5951 24.7876 45.5288 24.4556 45.39 24.1522C45.2512 23.8488 45.0437 23.5824 44.7842 23.3745C44.5247 23.1666 44.2204 23.0229 43.8958 22.955C43.5711 22.8871 43.2352 22.8968 42.915 22.9834C40.7177 23.49 38.9598 29.0185 38.9598 29.0185C38.9354 26.4655 39.463 23.9378 40.5061 21.6111C41.5492 19.2844 43.0826 17.2146 44.9999 15.5455C48.273 12.7503 51.4706 11.7831 53.9 11.4041C51.5005 12.7822 50.1505 15.0318 50.1505 16.9201C50.1505 19.9473 51.9646 19.5895 52.5025 19.1431V36.6654C52.5934 36.8856 52.7115 37.0933 52.8541 37.2836C53.0944 37.6185 53.4109 37.8904 53.777 38.0766C54.1431 38.2627 54.5482 38.3577 54.9583 38.3535C56.7759 38.3535 59.1332 36.2633 59.1332 36.2633V22.0747C59.1332 20.6311 58.0539 18.8863 56.9728 18.2911C56.9728 18.2911 58.9733 17.9368 60.5202 19.1254C60.8103 18.7674 61.1189 18.4251 61.4448 18.0998C65.0415 14.5394 68.4359 13.5297 71.2626 13.0231C71.2626 13.0231 66.1173 17.0972 66.1173 22.553C66.1173 26.6147 66.221 36.5184 66.221 36.5184C68.1353 38.3713 70.9708 35.6965 73.5338 33.0395Z" fill="#404042"/>
<path fill-rule="evenodd" clip-rule="evenodd" d="M56.4999 2.17285e-07C50.8304 0.00035057 45.2883 1.6948 40.5744 4.86908C35.8605 8.04336 32.1866 12.5549 30.0173 17.8332C27.848 23.1115 27.2807 28.9194 28.3871 34.5226C29.4935 40.1258 32.224 45.2725 36.2332 49.312C40.2424 53.3515 45.3503 56.1023 50.911 57.2165C56.4717 58.3307 62.2354 57.7583 67.4732 55.5717C72.7111 53.3851 77.1878 49.6825 80.3374 44.9321C83.4869 40.1817 85.1678 34.5968 85.1674 28.8838C85.1674 25.0904 84.4259 21.3342 82.9852 17.8296C81.5445 14.3251 79.4328 11.1408 76.7707 8.45862C74.1086 5.77646 70.9483 3.64897 67.4702 2.19763C63.9922 0.746293 60.2644 -0.000465056 56.4999 2.17285e-07ZM56.4999 56.6145C51.057 56.6148 45.7362 54.9887 41.2104 51.9419C36.6846 48.895 33.157 44.5642 31.0739 39.4971C28.9907 34.43 28.4455 28.8543 29.5071 23.4749C30.5688 18.0956 33.1896 13.1543 37.0383 9.2759C40.8869 5.39752 45.7904 2.75626 51.1287 1.68612C56.467 0.615986 62.0004 1.16504 67.0291 3.26386C72.0577 5.36267 76.3558 8.91698 79.3798 13.4773C82.4037 18.0376 84.0178 23.3991 84.0178 28.8838C84.0178 36.2381 81.1186 43.2913 75.9581 48.4917C70.7975 53.6922 63.7983 56.614 56.4999 56.6145Z" fill="#404042"/>
</g>
<defs>
<clipPath id="clip0_4134_45">
<rect width="113" height="93" fill="white"/>
</clipPath>
</defs>
</svg>
