<svg width="153" height="69" viewBox="0 0 153 69" fill="none" xmlns="http://www.w3.org/2000/svg">
<path d="M34.1529 22.1682V17.1111C34.1529 15.2753 33.0445 13.6473 31.3473 12.9199L0 0V2.80567L27.9528 14.3401C28.9226 14.7211 28.9226 16.1066 27.9528 16.4876L0 28.022V39.2794L16.834 32.3171L27.9181 36.8893C28.888 37.2704 28.888 38.6559 27.9181 39.0369L0 50.5713V68.4098L31.3473 55.4899C33.0445 54.7971 34.1529 53.1345 34.1529 51.2987V39.695C34.1529 37.8592 33.0445 36.2312 31.3473 35.5038L20.2285 30.9316L31.3473 26.3594C33.0445 25.6667 34.1529 24.0041 34.1529 22.1682Z" fill="#404042"/>
<path d="M50.0867 25.2511L55.0053 44.4058L60.5128 25.2511H65.7777L70.9734 44.4058L76.0998 25.2511H79.9792L73.3634 48.3546H68.4448L63.0067 28.4378L57.3607 48.3546H52.3729L45.9648 25.2511H50.0867Z" fill="#404042"/>
<path d="M85.9022 37.9284C86.0407 39.8335 86.2485 40.8033 86.872 42.0157C88.0151 44.1978 90.6129 45.618 93.2107 45.618C96.3628 45.618 98.4064 44.1286 99.2724 41.1843H103.567C102.494 46.1722 98.7182 48.9432 93.1415 48.9432C86.1793 48.9432 81.7456 44.1632 81.7456 36.6814C81.7456 29.3728 86.1793 24.4889 92.7951 24.4889C99.8266 24.4889 103.637 29.2689 103.637 37.8591H85.9022V37.9284ZM98.3025 30.8623C97.2287 29.0265 95.0465 27.918 92.7951 27.918C88.9156 27.918 86.4563 30.3773 85.9714 34.811H99.4109C99.2031 32.7673 98.926 31.7975 98.3025 30.8623Z" fill="#404042"/>
<path d="M107.516 16.453H111.465V28.7148C113.093 25.9784 115.344 24.6968 118.635 24.6968C124.35 24.6968 128.437 29.6847 128.437 36.8201C128.437 43.9555 124.558 48.8048 118.669 48.8048C115.448 48.8048 113.335 47.5232 111.292 44.5097V48.3198H107.481V16.453H107.516ZM111.534 36.7162C111.534 41.7733 114.409 45.5142 118.15 45.5142C121.752 45.5142 124.142 42.1197 124.142 36.8547C124.142 31.3473 121.752 27.9181 118.011 27.9181C114.27 27.9181 111.534 31.5205 111.534 36.7162Z" fill="#404042"/>
<path d="M135.607 38.6212C135.538 42.7084 138.136 45.3756 142.223 45.3756C145.895 45.3756 148.562 43.0548 148.562 39.8681C148.562 36.6122 146.033 34.6032 141.946 34.6032C141.53 34.6032 141.184 34.6032 140.595 34.6724V31.1394C141.08 31.1394 141.357 31.1394 141.634 31.1394C145.86 31.1394 148.319 29.3036 148.319 26.013C148.319 22.9302 145.929 20.9559 142.327 20.9559C138.448 20.9559 136.196 23.2766 136.058 27.3639H131.832C132.109 21.0251 135.988 17.3535 142.396 17.3535C148.319 17.3535 152.476 20.748 152.476 25.6666C152.476 28.9226 150.155 31.9361 147.038 32.7674C150.848 33.7372 152.892 36.3004 152.892 40.1452C152.892 45.3409 148.458 49.0125 142.189 49.0125C135.642 49.0125 131.208 44.7867 131.278 38.6558C131.243 38.6212 135.607 38.6212 135.607 38.6212Z" fill="#404042"/>
</svg>
